<?xml version="1.0" encoding="utf-8" standalone="no"?>
<!DOCTYPE svg PUBLIC "-//W3C//DTD SVG 1.1//EN"
  "http://www.w3.org/Graphics/SVG/1.1/DTD/svg11.dtd">
<svg xmlns:xlink="http://www.w3.org/1999/xlink" width="471.230312pt" height="450.791162pt" viewBox="0 0 471.230312 450.791162" xmlns="http://www.w3.org/2000/svg" version="1.1">
 <metadata>
  <rdf:RDF xmlns:dc="http://purl.org/dc/elements/1.1/" xmlns:cc="http://creativecommons.org/ns#" xmlns:rdf="http://www.w3.org/1999/02/22-rdf-syntax-ns#">
   <cc:Work>
    <dc:type rdf:resource="http://purl.org/dc/dcmitype/StillImage"/>
    <dc:date>2026-02-23T11:53:25.134773</dc:date>
    <dc:format>image/svg+xml</dc:format>
    <dc:creator>
     <cc:Agent>
      <dc:title>Matplotlib v3.8.0, https://matplotlib.org/</dc:title>
     </cc:Agent>
    </dc:creator>
   </cc:Work>
  </rdf:RDF>
 </metadata>
 <defs>
  <style type="text/css">*{stroke-linejoin: round; stroke-linecap: butt}</style>
 </defs>
 <g id="figure_1">
  <g id="patch_1">
   <path d="M 0 450.791162 
L 471.230312 450.791162 
L 471.230312 0 
L 0 0 
z
" style="fill: #ffffff"/>
  </g>
  <g id="axes_1">
   <g id="patch_2">
    <path d="M 407.302109 236.727412 
C 407.302109 214.88647 402.99992 193.257904 394.641753 173.079504 
C 386.283586 152.901104 374.031988 134.565291 358.588109 119.121413 
C 343.144231 103.677534 324.808417 91.425935 304.630018 83.067769 
C 284.451618 74.709602 262.823052 70.407412 240.982109 70.407412 
C 219.141167 70.407412 197.5126 74.709602 177.334201 83.067769 
C 157.155801 91.425935 138.819988 103.677534 123.37611 119.121413 
C 107.932231 134.565291 95.680632 152.901104 87.322466 173.079504 
C 78.964299 193.257904 74.662109 214.88647 74.662109 236.727412 
C 74.662109 258.568355 78.964299 280.196921 87.322466 300.375321 
C 95.680632 320.553721 107.932231 338.889534 123.37611 354.333412 
C 138.819988 369.777291 157.155801 382.02889 177.334201 390.387056 
C 197.5126 398.745223 219.141167 403.047413 240.982109 403.047413 
C 262.823052 403.047413 284.451618 398.745223 304.630018 390.387056 
C 324.808417 382.02889 343.144231 369.777291 358.588109 354.333412 
C 374.031988 338.889534 386.283586 320.553721 394.641753 300.375321 
C 402.99992 280.196921 407.302109 258.568355 407.302109 236.727413 
M 240.982109 236.727412 
C 240.982109 236.727412 240.982109 236.727412 240.982109 236.727412 
C 240.982109 236.727412 240.982109 236.727412 240.982109 236.727412 
C 240.982109 236.727412 240.982109 236.727412 240.982109 236.727412 
C 240.982109 236.727412 240.982109 236.727412 240.982109 236.727412 
C 240.982109 236.727412 240.982109 236.727412 240.982109 236.727412 
C 240.982109 236.727412 240.982109 236.727412 240.982109 236.727412 
C 240.982109 236.727412 240.982109 236.727412 240.982109 236.727412 
C 240.982109 236.727412 240.982109 236.727412 240.982109 236.727412 
C 240.982109 236.727412 240.982109 236.727412 240.982109 236.727412 
C 240.982109 236.727412 240.982109 236.727412 240.982109 236.727412 
C 240.982109 236.727412 240.982109 236.727412 240.982109 236.727412 
C 240.982109 236.727412 240.982109 236.727412 240.982109 236.727412 
C 240.982109 236.727412 240.982109 236.727412 240.982109 236.727412 
C 240.982109 236.727412 240.982109 236.727412 240.982109 236.727412 
C 240.982109 236.727412 240.982109 236.727412 240.982109 236.727412 
C 240.982109 236.727412 240.982109 236.727412 240.982109 236.727412 
z
" style="fill: #ffffff"/>
   </g>
   <g id="patch_3">
    <path d="M 240.982109 70.407412 
L 358.588109 119.121413 
L 343.268909 236.727412 
L 358.588109 354.333412 
L 240.982109 321.217972 
L 142.428282 335.28124 
L 170.462429 236.727412 
L 123.37611 119.121413 
z
" clip-path="url(#p50984107a3)" style="fill: #1f77b4; opacity: 0.2"/>
   </g>
   <g id="matplotlib.axis_1">
    <g id="xtick_1">
     <g id="line2d_1">
      <path d="M 240.982109 236.727412 
L 240.982109 70.407412 
" clip-path="url(#p50984107a3)" style="fill: none; stroke: #b0b0b0; stroke-width: 0.8; stroke-linecap: square"/>
     </g>
     <g id="text_1">
      <!-- Technical Completeness -->
      <g transform="translate(186.892109 58.89085) scale(0.09 -0.09)">
       <defs>
        <path id="DejaVuSans-54" d="M -19 4666 
L 3928 4666 
L 3928 4134 
L 2272 4134 
L 2272 0 
L 1638 0 
L 1638 4134 
L -19 4134 
L -19 4666 
z
" transform="scale(0.015625)"/>
        <path id="DejaVuSans-65" d="M 3597 1894 
L 3597 1613 
L 953 1613 
Q 991 1019 1311 708 
Q 1631 397 2203 397 
Q 2534 397 2845 478 
Q 3156 559 3463 722 
L 3463 178 
Q 3153 47 2828 -22 
Q 2503 -91 2169 -91 
Q 1331 -91 842 396 
Q 353 884 353 1716 
Q 353 2575 817 3079 
Q 1281 3584 2069 3584 
Q 2775 3584 3186 3129 
Q 3597 2675 3597 1894 
z
M 3022 2063 
Q 3016 2534 2758 2815 
Q 2500 3097 2075 3097 
Q 1594 3097 1305 2825 
Q 1016 2553 972 2059 
L 3022 2063 
z
" transform="scale(0.015625)"/>
        <path id="DejaVuSans-63" d="M 3122 3366 
L 3122 2828 
Q 2878 2963 2633 3030 
Q 2388 3097 2138 3097 
Q 1578 3097 1268 2742 
Q 959 2388 959 1747 
Q 959 1106 1268 751 
Q 1578 397 2138 397 
Q 2388 397 2633 464 
Q 2878 531 3122 666 
L 3122 134 
Q 2881 22 2623 -34 
Q 2366 -91 2075 -91 
Q 1284 -91 818 406 
Q 353 903 353 1747 
Q 353 2603 823 3093 
Q 1294 3584 2113 3584 
Q 2378 3584 2631 3529 
Q 2884 3475 3122 3366 
z
" transform="scale(0.015625)"/>
        <path id="DejaVuSans-68" d="M 3513 2113 
L 3513 0 
L 2938 0 
L 2938 2094 
Q 2938 2591 2744 2837 
Q 2550 3084 2163 3084 
Q 1697 3084 1428 2787 
Q 1159 2491 1159 1978 
L 1159 0 
L 581 0 
L 581 4863 
L 1159 4863 
L 1159 2956 
Q 1366 3272 1645 3428 
Q 1925 3584 2291 3584 
Q 2894 3584 3203 3211 
Q 3513 2838 3513 2113 
z
" transform="scale(0.015625)"/>
        <path id="DejaVuSans-6e" d="M 3513 2113 
L 3513 0 
L 2938 0 
L 2938 2094 
Q 2938 2591 2744 2837 
Q 2550 3084 2163 3084 
Q 1697 3084 1428 2787 
Q 1159 2491 1159 1978 
L 1159 0 
L 581 0 
L 581 3500 
L 1159 3500 
L 1159 2956 
Q 1366 3272 1645 3428 
Q 1925 3584 2291 3584 
Q 2894 3584 3203 3211 
Q 3513 2838 3513 2113 
z
" transform="scale(0.015625)"/>
        <path id="DejaVuSans-69" d="M 603 3500 
L 1178 3500 
L 1178 0 
L 603 0 
L 603 3500 
z
M 603 4863 
L 1178 4863 
L 1178 4134 
L 603 4134 
L 603 4863 
z
" transform="scale(0.015625)"/>
        <path id="DejaVuSans-61" d="M 2194 1759 
Q 1497 1759 1228 1600 
Q 959 1441 959 1056 
Q 959 750 1161 570 
Q 1363 391 1709 391 
Q 2188 391 2477 730 
Q 2766 1069 2766 1631 
L 2766 1759 
L 2194 1759 
z
M 3341 1997 
L 3341 0 
L 2766 0 
L 2766 531 
Q 2569 213 2275 61 
Q 1981 -91 1556 -91 
Q 1019 -91 701 211 
Q 384 513 384 1019 
Q 384 1609 779 1909 
Q 1175 2209 1959 2209 
L 2766 2209 
L 2766 2266 
Q 2766 2663 2505 2880 
Q 2244 3097 1772 3097 
Q 1472 3097 1187 3025 
Q 903 2953 641 2809 
L 641 3341 
Q 956 3463 1253 3523 
Q 1550 3584 1831 3584 
Q 2591 3584 2966 3190 
Q 3341 2797 3341 1997 
z
" transform="scale(0.015625)"/>
        <path id="DejaVuSans-6c" d="M 603 4863 
L 1178 4863 
L 1178 0 
L 603 0 
L 603 4863 
z
" transform="scale(0.015625)"/>
        <path id="DejaVuSans-20" transform="scale(0.015625)"/>
        <path id="DejaVuSans-43" d="M 4122 4306 
L 4122 3641 
Q 3803 3938 3442 4084 
Q 3081 4231 2675 4231 
Q 1875 4231 1450 3742 
Q 1025 3253 1025 2328 
Q 1025 1406 1450 917 
Q 1875 428 2675 428 
Q 3081 428 3442 575 
Q 3803 722 4122 1019 
L 4122 359 
Q 3791 134 3420 21 
Q 3050 -91 2638 -91 
Q 1578 -91 968 557 
Q 359 1206 359 2328 
Q 359 3453 968 4101 
Q 1578 4750 2638 4750 
Q 3056 4750 3426 4639 
Q 3797 4528 4122 4306 
z
" transform="scale(0.015625)"/>
        <path id="DejaVuSans-6f" d="M 1959 3097 
Q 1497 3097 1228 2736 
Q 959 2375 959 1747 
Q 959 1119 1226 758 
Q 1494 397 1959 397 
Q 2419 397 2687 759 
Q 2956 1122 2956 1747 
Q 2956 2369 2687 2733 
Q 2419 3097 1959 3097 
z
M 1959 3584 
Q 2709 3584 3137 3096 
Q 3566 2609 3566 1747 
Q 3566 888 3137 398 
Q 2709 -91 1959 -91 
Q 1206 -91 779 398 
Q 353 888 353 1747 
Q 353 2609 779 3096 
Q 1206 3584 1959 3584 
z
" transform="scale(0.015625)"/>
        <path id="DejaVuSans-6d" d="M 3328 2828 
Q 3544 3216 3844 3400 
Q 4144 3584 4550 3584 
Q 5097 3584 5394 3201 
Q 5691 2819 5691 2113 
L 5691 0 
L 5113 0 
L 5113 2094 
Q 5113 2597 4934 2840 
Q 4756 3084 4391 3084 
Q 3944 3084 3684 2787 
Q 3425 2491 3425 1978 
L 3425 0 
L 2847 0 
L 2847 2094 
Q 2847 2600 2669 2842 
Q 2491 3084 2119 3084 
Q 1678 3084 1418 2786 
Q 1159 2488 1159 1978 
L 1159 0 
L 581 0 
L 581 3500 
L 1159 3500 
L 1159 2956 
Q 1356 3278 1631 3431 
Q 1906 3584 2284 3584 
Q 2666 3584 2933 3390 
Q 3200 3197 3328 2828 
z
" transform="scale(0.015625)"/>
        <path id="DejaVuSans-70" d="M 1159 525 
L 1159 -1331 
L 581 -1331 
L 581 3500 
L 1159 3500 
L 1159 2969 
Q 1341 3281 1617 3432 
Q 1894 3584 2278 3584 
Q 2916 3584 3314 3078 
Q 3713 2572 3713 1747 
Q 3713 922 3314 415 
Q 2916 -91 2278 -91 
Q 1894 -91 1617 61 
Q 1341 213 1159 525 
z
M 3116 1747 
Q 3116 2381 2855 2742 
Q 2594 3103 2138 3103 
Q 1681 3103 1420 2742 
Q 1159 2381 1159 1747 
Q 1159 1113 1420 752 
Q 1681 391 2138 391 
Q 2594 391 2855 752 
Q 3116 1113 3116 1747 
z
" transform="scale(0.015625)"/>
        <path id="DejaVuSans-74" d="M 1172 4494 
L 1172 3500 
L 2356 3500 
L 2356 3053 
L 1172 3053 
L 1172 1153 
Q 1172 725 1289 603 
Q 1406 481 1766 481 
L 2356 481 
L 2356 0 
L 1766 0 
Q 1100 0 847 248 
Q 594 497 594 1153 
L 594 3053 
L 172 3053 
L 172 3500 
L 594 3500 
L 594 4494 
L 1172 4494 
z
" transform="scale(0.015625)"/>
        <path id="DejaVuSans-73" d="M 2834 3397 
L 2834 2853 
Q 2591 2978 2328 3040 
Q 2066 3103 1784 3103 
Q 1356 3103 1142 2972 
Q 928 2841 928 2578 
Q 928 2378 1081 2264 
Q 1234 2150 1697 2047 
L 1894 2003 
Q 2506 1872 2764 1633 
Q 3022 1394 3022 966 
Q 3022 478 2636 193 
Q 2250 -91 1575 -91 
Q 1294 -91 989 -36 
Q 684 19 347 128 
L 347 722 
Q 666 556 975 473 
Q 1284 391 1588 391 
Q 1994 391 2212 530 
Q 2431 669 2431 922 
Q 2431 1156 2273 1281 
Q 2116 1406 1581 1522 
L 1381 1569 
Q 847 1681 609 1914 
Q 372 2147 372 2553 
Q 372 3047 722 3315 
Q 1072 3584 1716 3584 
Q 2034 3584 2315 3537 
Q 2597 3491 2834 3397 
z
" transform="scale(0.015625)"/>
       </defs>
       <use xlink:href="#DejaVuSans-54"/>
       <use xlink:href="#DejaVuSans-65" x="44.083984"/>
       <use xlink:href="#DejaVuSans-63" x="105.607422"/>
       <use xlink:href="#DejaVuSans-68" x="160.587891"/>
       <use xlink:href="#DejaVuSans-6e" x="223.966797"/>
       <use xlink:href="#DejaVuSans-69" x="287.345703"/>
       <use xlink:href="#DejaVuSans-63" x="315.128906"/>
       <use xlink:href="#DejaVuSans-61" x="370.109375"/>
       <use xlink:href="#DejaVuSans-6c" x="431.388672"/>
       <use xlink:href="#DejaVuSans-20" x="459.171875"/>
       <use xlink:href="#DejaVuSans-43" x="490.958984"/>
       <use xlink:href="#DejaVuSans-6f" x="560.783203"/>
       <use xlink:href="#DejaVuSans-6d" x="621.964844"/>
       <use xlink:href="#DejaVuSans-70" x="719.376953"/>
       <use xlink:href="#DejaVuSans-6c" x="782.853516"/>
       <use xlink:href="#DejaVuSans-65" x="810.636719"/>
       <use xlink:href="#DejaVuSans-74" x="872.160156"/>
       <use xlink:href="#DejaVuSans-65" x="911.369141"/>
       <use xlink:href="#DejaVuSans-6e" x="972.892578"/>
       <use xlink:href="#DejaVuSans-65" x="1036.271484"/>
       <use xlink:href="#DejaVuSans-73" x="1097.794922"/>
       <use xlink:href="#DejaVuSans-73" x="1149.894531"/>
      </g>
     </g>
    </g>
    <g id="xtick_2">
     <g id="line2d_2">
      <path d="M 240.982109 236.727412 
L 358.588109 119.121413 
" clip-path="url(#p50984107a3)" style="fill: none; stroke: #b0b0b0; stroke-width: 0.8; stroke-linecap: square"/>
     </g>
     <g id="text_2">
      <!-- Automation Depth -->
      <g transform="translate(327.142448 111.705355) scale(0.09 -0.09)">
       <defs>
        <path id="DejaVuSans-41" d="M 2188 4044 
L 1331 1722 
L 3047 1722 
L 2188 4044 
z
M 1831 4666 
L 2547 4666 
L 4325 0 
L 3669 0 
L 3244 1197 
L 1141 1197 
L 716 0 
L 50 0 
L 1831 4666 
z
" transform="scale(0.015625)"/>
        <path id="DejaVuSans-75" d="M 544 1381 
L 544 3500 
L 1119 3500 
L 1119 1403 
Q 1119 906 1312 657 
Q 1506 409 1894 409 
Q 2359 409 2629 706 
Q 2900 1003 2900 1516 
L 2900 3500 
L 3475 3500 
L 3475 0 
L 2900 0 
L 2900 538 
Q 2691 219 2414 64 
Q 2138 -91 1772 -91 
Q 1169 -91 856 284 
Q 544 659 544 1381 
z
M 1991 3584 
L 1991 3584 
z
" transform="scale(0.015625)"/>
        <path id="DejaVuSans-44" d="M 1259 4147 
L 1259 519 
L 2022 519 
Q 2988 519 3436 956 
Q 3884 1394 3884 2338 
Q 3884 3275 3436 3711 
Q 2988 4147 2022 4147 
L 1259 4147 
z
M 628 4666 
L 1925 4666 
Q 3281 4666 3915 4102 
Q 4550 3538 4550 2338 
Q 4550 1131 3912 565 
Q 3275 0 1925 0 
L 628 0 
L 628 4666 
z
" transform="scale(0.015625)"/>
       </defs>
       <use xlink:href="#DejaVuSans-41"/>
       <use xlink:href="#DejaVuSans-75" x="68.408203"/>
       <use xlink:href="#DejaVuSans-74" x="131.787109"/>
       <use xlink:href="#DejaVuSans-6f" x="170.996094"/>
       <use xlink:href="#DejaVuSans-6d" x="232.177734"/>
       <use xlink:href="#DejaVuSans-61" x="329.589844"/>
       <use xlink:href="#DejaVuSans-74" x="390.869141"/>
       <use xlink:href="#DejaVuSans-69" x="430.078125"/>
       <use xlink:href="#DejaVuSans-6f" x="457.861328"/>
       <use xlink:href="#DejaVuSans-6e" x="519.042969"/>
       <use xlink:href="#DejaVuSans-20" x="582.421875"/>
       <use xlink:href="#DejaVuSans-44" x="614.208984"/>
       <use xlink:href="#DejaVuSans-65" x="691.210938"/>
       <use xlink:href="#DejaVuSans-70" x="752.734375"/>
       <use xlink:href="#DejaVuSans-74" x="816.210938"/>
       <use xlink:href="#DejaVuSans-68" x="855.419922"/>
      </g>
     </g>
    </g>
    <g id="xtick_3">
     <g id="line2d_3">
      <path d="M 240.982109 236.727412 
L 407.302109 236.727412 
" clip-path="url(#p50984107a3)" style="fill: none; stroke: #b0b0b0; stroke-width: 0.8; stroke-linecap: square"/>
     </g>
     <g id="text_3">
      <!-- Authority Modeling -->
      <g transform="translate(378.573906 239.21085) scale(0.09 -0.09)">
       <defs>
        <path id="DejaVuSans-72" d="M 2631 2963 
Q 2534 3019 2420 3045 
Q 2306 3072 2169 3072 
Q 1681 3072 1420 2755 
Q 1159 2438 1159 1844 
L 1159 0 
L 581 0 
L 581 3500 
L 1159 3500 
L 1159 2956 
Q 1341 3275 1631 3429 
Q 1922 3584 2338 3584 
Q 2397 3584 2469 3576 
Q 2541 3569 2628 3553 
L 2631 2963 
z
" transform="scale(0.015625)"/>
        <path id="DejaVuSans-79" d="M 2059 -325 
Q 1816 -950 1584 -1140 
Q 1353 -1331 966 -1331 
L 506 -1331 
L 506 -850 
L 844 -850 
Q 1081 -850 1212 -737 
Q 1344 -625 1503 -206 
L 1606 56 
L 191 3500 
L 800 3500 
L 1894 763 
L 2988 3500 
L 3597 3500 
L 2059 -325 
z
" transform="scale(0.015625)"/>
        <path id="DejaVuSans-4d" d="M 628 4666 
L 1569 4666 
L 2759 1491 
L 3956 4666 
L 4897 4666 
L 4897 0 
L 4281 0 
L 4281 4097 
L 3078 897 
L 2444 897 
L 1241 4097 
L 1241 0 
L 628 0 
L 628 4666 
z
" transform="scale(0.015625)"/>
        <path id="DejaVuSans-64" d="M 2906 2969 
L 2906 4863 
L 3481 4863 
L 3481 0 
L 2906 0 
L 2906 525 
Q 2725 213 2448 61 
Q 2172 -91 1784 -91 
Q 1150 -91 751 415 
Q 353 922 353 1747 
Q 353 2572 751 3078 
Q 1150 3584 1784 3584 
Q 2172 3584 2448 3432 
Q 2725 3281 2906 2969 
z
M 947 1747 
Q 947 1113 1208 752 
Q 1469 391 1925 391 
Q 2381 391 2643 752 
Q 2906 1113 2906 1747 
Q 2906 2381 2643 2742 
Q 2381 3103 1925 3103 
Q 1469 3103 1208 2742 
Q 947 2381 947 1747 
z
" transform="scale(0.015625)"/>
        <path id="DejaVuSans-67" d="M 2906 1791 
Q 2906 2416 2648 2759 
Q 2391 3103 1925 3103 
Q 1463 3103 1205 2759 
Q 947 2416 947 1791 
Q 947 1169 1205 825 
Q 1463 481 1925 481 
Q 2391 481 2648 825 
Q 2906 1169 2906 1791 
z
M 3481 434 
Q 3481 -459 3084 -895 
Q 2688 -1331 1869 -1331 
Q 1566 -1331 1297 -1286 
Q 1028 -1241 775 -1147 
L 775 -588 
Q 1028 -725 1275 -790 
Q 1522 -856 1778 -856 
Q 2344 -856 2625 -561 
Q 2906 -266 2906 331 
L 2906 616 
Q 2728 306 2450 153 
Q 2172 0 1784 0 
Q 1141 0 747 490 
Q 353 981 353 1791 
Q 353 2603 747 3093 
Q 1141 3584 1784 3584 
Q 2172 3584 2450 3431 
Q 2728 3278 2906 2969 
L 2906 3500 
L 3481 3500 
L 3481 434 
z
" transform="scale(0.015625)"/>
       </defs>
       <use xlink:href="#DejaVuSans-41"/>
       <use xlink:href="#DejaVuSans-75" x="68.408203"/>
       <use xlink:href="#DejaVuSans-74" x="131.787109"/>
       <use xlink:href="#DejaVuSans-68" x="170.996094"/>
       <use xlink:href="#DejaVuSans-6f" x="234.375"/>
       <use xlink:href="#DejaVuSans-72" x="295.556641"/>
       <use xlink:href="#DejaVuSans-69" x="336.669922"/>
       <use xlink:href="#DejaVuSans-74" x="364.453125"/>
       <use xlink:href="#DejaVuSans-79" x="403.662109"/>
       <use xlink:href="#DejaVuSans-20" x="462.841797"/>
       <use xlink:href="#DejaVuSans-4d" x="494.628906"/>
       <use xlink:href="#DejaVuSans-6f" x="580.908203"/>
       <use xlink:href="#DejaVuSans-64" x="642.089844"/>
       <use xlink:href="#DejaVuSans-65" x="705.566406"/>
       <use xlink:href="#DejaVuSans-6c" x="767.089844"/>
       <use xlink:href="#DejaVuSans-69" x="794.873047"/>
       <use xlink:href="#DejaVuSans-6e" x="822.65625"/>
       <use xlink:href="#DejaVuSans-67" x="886.035156"/>
      </g>
     </g>
    </g>
    <g id="xtick_4">
     <g id="line2d_4">
      <path d="M 240.982109 236.727412 
L 358.588109 354.333412 
" clip-path="url(#p50984107a3)" style="fill: none; stroke: #b0b0b0; stroke-width: 0.8; stroke-linecap: square"/>
     </g>
     <g id="text_4">
      <!-- Enterprise Readiness -->
      <g transform="translate(321.042135 366.716345) scale(0.09 -0.09)">
       <defs>
        <path id="DejaVuSans-45" d="M 628 4666 
L 3578 4666 
L 3578 4134 
L 1259 4134 
L 1259 2753 
L 3481 2753 
L 3481 2222 
L 1259 2222 
L 1259 531 
L 3634 531 
L 3634 0 
L 628 0 
L 628 4666 
z
" transform="scale(0.015625)"/>
        <path id="DejaVuSans-52" d="M 2841 2188 
Q 3044 2119 3236 1894 
Q 3428 1669 3622 1275 
L 4263 0 
L 3584 0 
L 2988 1197 
Q 2756 1666 2539 1819 
Q 2322 1972 1947 1972 
L 1259 1972 
L 1259 0 
L 628 0 
L 628 4666 
L 2053 4666 
Q 2853 4666 3247 4331 
Q 3641 3997 3641 3322 
Q 3641 2881 3436 2590 
Q 3231 2300 2841 2188 
z
M 1259 4147 
L 1259 2491 
L 2053 2491 
Q 2509 2491 2742 2702 
Q 2975 2913 2975 3322 
Q 2975 3731 2742 3939 
Q 2509 4147 2053 4147 
L 1259 4147 
z
" transform="scale(0.015625)"/>
       </defs>
       <use xlink:href="#DejaVuSans-45"/>
       <use xlink:href="#DejaVuSans-6e" x="63.183594"/>
       <use xlink:href="#DejaVuSans-74" x="126.5625"/>
       <use xlink:href="#DejaVuSans-65" x="165.771484"/>
       <use xlink:href="#DejaVuSans-72" x="227.294922"/>
       <use xlink:href="#DejaVuSans-70" x="268.408203"/>
       <use xlink:href="#DejaVuSans-72" x="331.884766"/>
       <use xlink:href="#DejaVuSans-69" x="372.998047"/>
       <use xlink:href="#DejaVuSans-73" x="400.78125"/>
       <use xlink:href="#DejaVuSans-65" x="452.880859"/>
       <use xlink:href="#DejaVuSans-20" x="514.404297"/>
       <use xlink:href="#DejaVuSans-52" x="546.191406"/>
       <use xlink:href="#DejaVuSans-65" x="611.173828"/>
       <use xlink:href="#DejaVuSans-61" x="672.697266"/>
       <use xlink:href="#DejaVuSans-64" x="733.976562"/>
       <use xlink:href="#DejaVuSans-69" x="797.453125"/>
       <use xlink:href="#DejaVuSans-6e" x="825.236328"/>
       <use xlink:href="#DejaVuSans-65" x="888.615234"/>
       <use xlink:href="#DejaVuSans-73" x="950.138672"/>
       <use xlink:href="#DejaVuSans-73" x="1002.238281"/>
      </g>
     </g>
    </g>
    <g id="xtick_5">
     <g id="line2d_5">
      <path d="M 240.982109 236.727412 
L 240.982109 403.047412 
" clip-path="url(#p50984107a3)" style="fill: none; stroke: #b0b0b0; stroke-width: 0.8; stroke-linecap: square"/>
     </g>
     <g id="text_5">
      <!-- Scalability -->
      <g transform="translate(217.850703 419.53085) scale(0.09 -0.09)">
       <defs>
        <path id="DejaVuSans-53" d="M 3425 4513 
L 3425 3897 
Q 3066 4069 2747 4153 
Q 2428 4238 2131 4238 
Q 1616 4238 1336 4038 
Q 1056 3838 1056 3469 
Q 1056 3159 1242 3001 
Q 1428 2844 1947 2747 
L 2328 2669 
Q 3034 2534 3370 2195 
Q 3706 1856 3706 1288 
Q 3706 609 3251 259 
Q 2797 -91 1919 -91 
Q 1588 -91 1214 -16 
Q 841 59 441 206 
L 441 856 
Q 825 641 1194 531 
Q 1563 422 1919 422 
Q 2459 422 2753 634 
Q 3047 847 3047 1241 
Q 3047 1584 2836 1778 
Q 2625 1972 2144 2069 
L 1759 2144 
Q 1053 2284 737 2584 
Q 422 2884 422 3419 
Q 422 4038 858 4394 
Q 1294 4750 2059 4750 
Q 2388 4750 2728 4690 
Q 3069 4631 3425 4513 
z
" transform="scale(0.015625)"/>
        <path id="DejaVuSans-62" d="M 3116 1747 
Q 3116 2381 2855 2742 
Q 2594 3103 2138 3103 
Q 1681 3103 1420 2742 
Q 1159 2381 1159 1747 
Q 1159 1113 1420 752 
Q 1681 391 2138 391 
Q 2594 391 2855 752 
Q 3116 1113 3116 1747 
z
M 1159 2969 
Q 1341 3281 1617 3432 
Q 1894 3584 2278 3584 
Q 2916 3584 3314 3078 
Q 3713 2572 3713 1747 
Q 3713 922 3314 415 
Q 2916 -91 2278 -91 
Q 1894 -91 1617 61 
Q 1341 213 1159 525 
L 1159 0 
L 581 0 
L 581 4863 
L 1159 4863 
L 1159 2969 
z
" transform="scale(0.015625)"/>
       </defs>
       <use xlink:href="#DejaVuSans-53"/>
       <use xlink:href="#DejaVuSans-63" x="63.476562"/>
       <use xlink:href="#DejaVuSans-61" x="118.457031"/>
       <use xlink:href="#DejaVuSans-6c" x="179.736328"/>
       <use xlink:href="#DejaVuSans-61" x="207.519531"/>
       <use xlink:href="#DejaVuSans-62" x="268.798828"/>
       <use xlink:href="#DejaVuSans-69" x="332.275391"/>
       <use xlink:href="#DejaVuSans-6c" x="360.058594"/>
       <use xlink:href="#DejaVuSans-69" x="387.841797"/>
       <use xlink:href="#DejaVuSans-74" x="415.625"/>
       <use xlink:href="#DejaVuSans-79" x="454.833984"/>
      </g>
     </g>
    </g>
    <g id="xtick_6">
     <g id="line2d_6">
      <path d="M 240.982109 236.727412 
L 123.37611 354.333412 
" clip-path="url(#p50984107a3)" style="fill: none; stroke: #b0b0b0; stroke-width: 0.8; stroke-linecap: square"/>
     </g>
     <g id="text_6">
      <!-- Data Integration -->
      <g transform="translate(76.505599 366.716345) scale(0.09 -0.09)">
       <defs>
        <path id="DejaVuSans-49" d="M 628 4666 
L 1259 4666 
L 1259 0 
L 628 0 
L 628 4666 
z
" transform="scale(0.015625)"/>
       </defs>
       <use xlink:href="#DejaVuSans-44"/>
       <use xlink:href="#DejaVuSans-61" x="77.001953"/>
       <use xlink:href="#DejaVuSans-74" x="138.28125"/>
       <use xlink:href="#DejaVuSans-61" x="177.490234"/>
       <use xlink:href="#DejaVuSans-20" x="238.769531"/>
       <use xlink:href="#DejaVuSans-49" x="270.556641"/>
       <use xlink:href="#DejaVuSans-6e" x="300.048828"/>
       <use xlink:href="#DejaVuSans-74" x="363.427734"/>
       <use xlink:href="#DejaVuSans-65" x="402.636719"/>
       <use xlink:href="#DejaVuSans-67" x="464.160156"/>
       <use xlink:href="#DejaVuSans-72" x="527.636719"/>
       <use xlink:href="#DejaVuSans-61" x="568.75"/>
       <use xlink:href="#DejaVuSans-74" x="630.029297"/>
       <use xlink:href="#DejaVuSans-69" x="669.238281"/>
       <use xlink:href="#DejaVuSans-6f" x="697.021484"/>
       <use xlink:href="#DejaVuSans-6e" x="758.203125"/>
      </g>
     </g>
    </g>
    <g id="xtick_7">
     <g id="line2d_7">
      <path d="M 240.982109 236.727412 
L 74.662109 236.727412 
" clip-path="url(#p50984107a3)" style="fill: none; stroke: #b0b0b0; stroke-width: 0.8; stroke-linecap: square"/>
     </g>
     <g id="text_7">
      <!-- Economic Measurability -->
      <g transform="translate(7.2 239.21085) scale(0.09 -0.09)">
       <use xlink:href="#DejaVuSans-45"/>
       <use xlink:href="#DejaVuSans-63" x="63.183594"/>
       <use xlink:href="#DejaVuSans-6f" x="118.164062"/>
       <use xlink:href="#DejaVuSans-6e" x="179.345703"/>
       <use xlink:href="#DejaVuSans-6f" x="242.724609"/>
       <use xlink:href="#DejaVuSans-6d" x="303.90625"/>
       <use xlink:href="#DejaVuSans-69" x="401.318359"/>
       <use xlink:href="#DejaVuSans-63" x="429.101562"/>
       <use xlink:href="#DejaVuSans-20" x="484.082031"/>
       <use xlink:href="#DejaVuSans-4d" x="515.869141"/>
       <use xlink:href="#DejaVuSans-65" x="602.148438"/>
       <use xlink:href="#DejaVuSans-61" x="663.671875"/>
       <use xlink:href="#DejaVuSans-73" x="724.951172"/>
       <use xlink:href="#DejaVuSans-75" x="777.050781"/>
       <use xlink:href="#DejaVuSans-72" x="840.429688"/>
       <use xlink:href="#DejaVuSans-61" x="881.542969"/>
       <use xlink:href="#DejaVuSans-62" x="942.822266"/>
       <use xlink:href="#DejaVuSans-69" x="1006.298828"/>
       <use xlink:href="#DejaVuSans-6c" x="1034.082031"/>
       <use xlink:href="#DejaVuSans-69" x="1061.865234"/>
       <use xlink:href="#DejaVuSans-74" x="1089.648438"/>
       <use xlink:href="#DejaVuSans-79" x="1128.857422"/>
      </g>
     </g>
    </g>
    <g id="xtick_8">
     <g id="line2d_8">
      <path d="M 240.982109 236.727412 
L 123.37611 119.121413 
" clip-path="url(#p50984107a3)" style="fill: none; stroke: #b0b0b0; stroke-width: 0.8; stroke-linecap: square"/>
     </g>
     <g id="text_8">
      <!-- Operational Maturity -->
      <g transform="translate(66.859427 111.705355) scale(0.09 -0.09)">
       <defs>
        <path id="DejaVuSans-4f" d="M 2522 4238 
Q 1834 4238 1429 3725 
Q 1025 3213 1025 2328 
Q 1025 1447 1429 934 
Q 1834 422 2522 422 
Q 3209 422 3611 934 
Q 4013 1447 4013 2328 
Q 4013 3213 3611 3725 
Q 3209 4238 2522 4238 
z
M 2522 4750 
Q 3503 4750 4090 4092 
Q 4678 3434 4678 2328 
Q 4678 1225 4090 567 
Q 3503 -91 2522 -91 
Q 1538 -91 948 565 
Q 359 1222 359 2328 
Q 359 3434 948 4092 
Q 1538 4750 2522 4750 
z
" transform="scale(0.015625)"/>
       </defs>
       <use xlink:href="#DejaVuSans-4f"/>
       <use xlink:href="#DejaVuSans-70" x="78.710938"/>
       <use xlink:href="#DejaVuSans-65" x="142.1875"/>
       <use xlink:href="#DejaVuSans-72" x="203.710938"/>
       <use xlink:href="#DejaVuSans-61" x="244.824219"/>
       <use xlink:href="#DejaVuSans-74" x="306.103516"/>
       <use xlink:href="#DejaVuSans-69" x="345.3125"/>
       <use xlink:href="#DejaVuSans-6f" x="373.095703"/>
       <use xlink:href="#DejaVuSans-6e" x="434.277344"/>
       <use xlink:href="#DejaVuSans-61" x="497.65625"/>
       <use xlink:href="#DejaVuSans-6c" x="558.935547"/>
       <use xlink:href="#DejaVuSans-20" x="586.71875"/>
       <use xlink:href="#DejaVuSans-4d" x="618.505859"/>
       <use xlink:href="#DejaVuSans-61" x="704.785156"/>
       <use xlink:href="#DejaVuSans-74" x="766.064453"/>
       <use xlink:href="#DejaVuSans-75" x="805.273438"/>
       <use xlink:href="#DejaVuSans-72" x="868.652344"/>
       <use xlink:href="#DejaVuSans-69" x="909.765625"/>
       <use xlink:href="#DejaVuSans-74" x="937.548828"/>
       <use xlink:href="#DejaVuSans-79" x="976.757812"/>
      </g>
     </g>
    </g>
   </g>
   <g id="matplotlib.axis_2">
    <g id="ytick_1">
     <g id="line2d_9">
      <path d="M 240.982109 203.463412 
C 245.350298 203.463412 249.676011 204.32385 253.711691 205.995484 
C 257.747371 207.667117 261.414534 210.117437 264.503309 213.206213 
C 267.592085 216.294988 270.042405 219.962151 271.714038 223.997831 
C 273.385671 228.033511 274.246109 232.359224 274.246109 236.727412 
C 274.246109 241.095601 273.385671 245.421314 271.714038 249.456994 
C 270.042405 253.492674 267.592085 257.159837 264.503309 260.248612 
C 261.414534 263.337388 257.747371 265.787708 253.711691 267.459341 
C 249.676011 269.130975 245.350298 269.991412 240.982109 269.991412 
C 236.613921 269.991412 232.288208 269.130975 228.252528 267.459341 
C 224.216848 265.787708 220.549685 263.337388 217.460909 260.248612 
C 214.372134 257.159837 211.921814 253.492674 210.250181 249.456994 
C 208.578547 245.421314 207.718109 241.095601 207.718109 236.727412 
C 207.718109 232.359224 208.578547 228.033511 210.250181 223.997831 
C 211.921814 219.962151 214.372134 216.294988 217.460909 213.206213 
C 220.549685 210.117437 224.216848 207.667117 228.252528 205.995484 
C 232.288208 204.32385 236.613921 203.463412 240.982109 203.463412 
" clip-path="url(#p50984107a3)" style="fill: none; stroke: #b0b0b0; stroke-width: 0.8; stroke-linecap: square"/>
     </g>
     <g id="text_9">
      <!-- 2 -->
      <g transform="translate(274.246109 235.063662) scale(0.08 -0.08)">
       <defs>
        <path id="DejaVuSans-32" d="M 1228 531 
L 3431 531 
L 3431 0 
L 469 0 
L 469 531 
Q 828 903 1448 1529 
Q 2069 2156 2228 2338 
Q 2531 2678 2651 2914 
Q 2772 3150 2772 3378 
Q 2772 3750 2511 3984 
Q 2250 4219 1831 4219 
Q 1534 4219 1204 4116 
Q 875 4013 500 3803 
L 500 4441 
Q 881 4594 1212 4672 
Q 1544 4750 1819 4750 
Q 2544 4750 2975 4387 
Q 3406 4025 3406 3419 
Q 3406 3131 3298 2873 
Q 3191 2616 2906 2266 
Q 2828 2175 2409 1742 
Q 1991 1309 1228 531 
z
" transform="scale(0.015625)"/>
       </defs>
       <use xlink:href="#DejaVuSans-32"/>
      </g>
     </g>
    </g>
    <g id="ytick_2">
     <g id="line2d_10">
      <path d="M 240.982109 170.199412 
C 249.718486 170.199412 258.369913 171.920288 266.441273 175.263555 
C 274.512633 178.606822 281.846958 183.507461 288.024509 189.685013 
C 294.202061 195.862564 299.1027 203.196889 302.445967 211.268249 
C 305.789234 219.339609 307.510109 227.991036 307.510109 236.727412 
C 307.510109 245.463789 305.789234 254.115216 302.445967 262.186576 
C 299.1027 270.257936 294.202061 277.592261 288.024509 283.769812 
C 281.846958 289.947364 274.512633 294.848003 266.441273 298.19127 
C 258.369913 301.534537 249.718486 303.255412 240.982109 303.255412 
C 232.245732 303.255412 223.594306 301.534537 215.522946 298.19127 
C 207.451586 294.848003 200.117261 289.947364 193.939709 283.769812 
C 187.762158 277.592261 182.861519 270.257936 179.518252 262.186576 
C 176.174985 254.115216 174.454109 245.463789 174.454109 236.727412 
C 174.454109 227.991036 176.174985 219.339609 179.518252 211.268249 
C 182.861519 203.196889 187.762158 195.862564 193.939709 189.685013 
C 200.117261 183.507461 207.451586 178.606822 215.522946 175.263555 
C 223.594306 171.920288 232.245732 170.199412 240.982109 170.199412 
" clip-path="url(#p50984107a3)" style="fill: none; stroke: #b0b0b0; stroke-width: 0.8; stroke-linecap: square"/>
     </g>
     <g id="text_10">
      <!-- 4 -->
      <g transform="translate(307.510109 235.063662) scale(0.08 -0.08)">
       <defs>
        <path id="DejaVuSans-34" d="M 2419 4116 
L 825 1625 
L 2419 1625 
L 2419 4116 
z
M 2253 4666 
L 3047 4666 
L 3047 1625 
L 3713 1625 
L 3713 1100 
L 3047 1100 
L 3047 0 
L 2419 0 
L 2419 1100 
L 313 1100 
L 313 1709 
L 2253 4666 
z
" transform="scale(0.015625)"/>
       </defs>
       <use xlink:href="#DejaVuSans-34"/>
      </g>
     </g>
    </g>
    <g id="ytick_3">
     <g id="line2d_11">
      <path d="M 240.982109 136.935412 
C 254.086675 136.935412 267.063815 139.516726 279.170854 144.531626 
C 291.277894 149.546526 302.279382 156.897486 311.545709 166.163813 
C 320.812036 175.43014 328.162996 186.431628 333.177896 198.538667 
C 338.192796 210.645707 340.774109 223.622847 340.774109 236.727412 
C 340.774109 249.831978 338.192796 262.809118 333.177896 274.916158 
C 328.162996 287.023197 320.812036 298.024685 311.545709 307.291012 
C 302.279382 316.557339 291.277894 323.908299 279.170854 328.923199 
C 267.063815 333.938099 254.086675 336.519412 240.982109 336.519412 
C 227.877544 336.519412 214.900404 333.938099 202.793364 328.923199 
C 190.686325 323.908299 179.684837 316.557339 170.418509 307.291012 
C 161.152182 298.024685 153.801223 287.023197 148.786323 274.916158 
C 143.771423 262.809118 141.190109 249.831978 141.190109 236.727412 
C 141.190109 223.622847 143.771423 210.645707 148.786323 198.538667 
C 153.801223 186.431628 161.152182 175.43014 170.418509 166.163813 
C 179.684837 156.897486 190.686325 149.546526 202.793364 144.531626 
C 214.900404 139.516726 227.877544 136.935412 240.982109 136.935412 
" clip-path="url(#p50984107a3)" style="fill: none; stroke: #b0b0b0; stroke-width: 0.8; stroke-linecap: square"/>
     </g>
     <g id="text_11">
      <!-- 6 -->
      <g transform="translate(340.774109 235.063662) scale(0.08 -0.08)">
       <defs>
        <path id="DejaVuSans-36" d="M 2113 2584 
Q 1688 2584 1439 2293 
Q 1191 2003 1191 1497 
Q 1191 994 1439 701 
Q 1688 409 2113 409 
Q 2538 409 2786 701 
Q 3034 994 3034 1497 
Q 3034 2003 2786 2293 
Q 2538 2584 2113 2584 
z
M 3366 4563 
L 3366 3988 
Q 3128 4100 2886 4159 
Q 2644 4219 2406 4219 
Q 1781 4219 1451 3797 
Q 1122 3375 1075 2522 
Q 1259 2794 1537 2939 
Q 1816 3084 2150 3084 
Q 2853 3084 3261 2657 
Q 3669 2231 3669 1497 
Q 3669 778 3244 343 
Q 2819 -91 2113 -91 
Q 1303 -91 875 529 
Q 447 1150 447 2328 
Q 447 3434 972 4092 
Q 1497 4750 2381 4750 
Q 2619 4750 2861 4703 
Q 3103 4656 3366 4563 
z
" transform="scale(0.015625)"/>
       </defs>
       <use xlink:href="#DejaVuSans-36"/>
      </g>
     </g>
    </g>
    <g id="ytick_4">
     <g id="line2d_12">
      <path d="M 240.982109 103.671412 
C 258.454863 103.671412 275.757717 107.113164 291.900436 113.799697 
C 308.043156 120.486231 322.711807 130.28751 335.066909 142.642613 
C 347.422012 154.997715 357.223291 169.666366 363.909824 185.809086 
C 370.596358 201.951805 374.038109 219.254659 374.038109 236.727412 
C 374.038109 254.200166 370.596358 271.50302 363.909824 287.645739 
C 357.223291 303.788459 347.422012 318.45711 335.066909 330.812212 
C 322.711807 343.167315 308.043156 352.968594 291.900436 359.655128 
C 275.757717 366.341661 258.454863 369.783412 240.982109 369.783412 
C 223.509356 369.783412 206.206502 366.341661 190.063783 359.655128 
C 173.921063 352.968594 159.252412 343.167315 146.897309 330.812212 
C 134.542207 318.45711 124.740928 303.788459 118.054394 287.645739 
C 111.367861 271.50302 107.926109 254.200166 107.926109 236.727412 
C 107.926109 219.254659 111.367861 201.951805 118.054394 185.809086 
C 124.740928 169.666366 134.542207 154.997715 146.897309 142.642613 
C 159.252412 130.28751 173.921063 120.486231 190.063783 113.799697 
C 206.206502 107.113164 223.509356 103.671412 240.982109 103.671412 
" clip-path="url(#p50984107a3)" style="fill: none; stroke: #b0b0b0; stroke-width: 0.8; stroke-linecap: square"/>
     </g>
     <g id="text_12">
      <!-- 8 -->
      <g transform="translate(374.038109 235.063662) scale(0.08 -0.08)">
       <defs>
        <path id="DejaVuSans-38" d="M 2034 2216 
Q 1584 2216 1326 1975 
Q 1069 1734 1069 1313 
Q 1069 891 1326 650 
Q 1584 409 2034 409 
Q 2484 409 2743 651 
Q 3003 894 3003 1313 
Q 3003 1734 2745 1975 
Q 2488 2216 2034 2216 
z
M 1403 2484 
Q 997 2584 770 2862 
Q 544 3141 544 3541 
Q 544 4100 942 4425 
Q 1341 4750 2034 4750 
Q 2731 4750 3128 4425 
Q 3525 4100 3525 3541 
Q 3525 3141 3298 2862 
Q 3072 2584 2669 2484 
Q 3125 2378 3379 2068 
Q 3634 1759 3634 1313 
Q 3634 634 3220 271 
Q 2806 -91 2034 -91 
Q 1263 -91 848 271 
Q 434 634 434 1313 
Q 434 1759 690 2068 
Q 947 2378 1403 2484 
z
M 1172 3481 
Q 1172 3119 1398 2916 
Q 1625 2713 2034 2713 
Q 2441 2713 2670 2916 
Q 2900 3119 2900 3481 
Q 2900 3844 2670 4047 
Q 2441 4250 2034 4250 
Q 1625 4250 1398 4047 
Q 1172 3844 1172 3481 
z
" transform="scale(0.015625)"/>
       </defs>
       <use xlink:href="#DejaVuSans-38"/>
      </g>
     </g>
    </g>
    <g id="ytick_5">
     <g id="line2d_13">
      <path d="M 240.982109 70.407412 
C 262.823052 70.407412 284.451618 74.709602 304.630018 83.067769 
C 324.808417 91.425935 343.144231 103.677534 358.588109 119.121413 
C 374.031988 134.565291 386.283586 152.901104 394.641753 173.079504 
C 402.99992 193.257904 407.302109 214.88647 407.302109 236.727412 
C 407.302109 258.568355 402.99992 280.196921 394.641753 300.375321 
C 386.283586 320.553721 374.031988 338.889534 358.588109 354.333412 
C 343.144231 369.777291 324.808417 382.02889 304.630018 390.387056 
C 284.451618 398.745223 262.823052 403.047412 240.982109 403.047412 
C 219.141167 403.047412 197.5126 398.745223 177.334201 390.387056 
C 157.155801 382.02889 138.819988 369.777291 123.37611 354.333412 
C 107.932231 338.889534 95.680632 320.553721 87.322466 300.375321 
C 78.964299 280.196921 74.662109 258.568355 74.662109 236.727412 
C 74.662109 214.88647 78.964299 193.257904 87.322466 173.079504 
C 95.680632 152.901104 107.932231 134.565291 123.37611 119.121413 
C 138.819988 103.677534 157.155801 91.425935 177.334201 83.067769 
C 197.5126 74.709602 219.141167 70.407412 240.982109 70.407412 
" clip-path="url(#p50984107a3)" style="fill: none; stroke: #b0b0b0; stroke-width: 0.8; stroke-linecap: square"/>
     </g>
     <g id="text_13">
      <!-- 10 -->
      <g transform="translate(407.302109 235.063662) scale(0.08 -0.08)">
       <defs>
        <path id="DejaVuSans-31" d="M 794 531 
L 1825 531 
L 1825 4091 
L 703 3866 
L 703 4441 
L 1819 4666 
L 2450 4666 
L 2450 531 
L 3481 531 
L 3481 0 
L 794 0 
L 794 531 
z
" transform="scale(0.015625)"/>
        <path id="DejaVuSans-30" d="M 2034 4250 
Q 1547 4250 1301 3770 
Q 1056 3291 1056 2328 
Q 1056 1369 1301 889 
Q 1547 409 2034 409 
Q 2525 409 2770 889 
Q 3016 1369 3016 2328 
Q 3016 3291 2770 3770 
Q 2525 4250 2034 4250 
z
M 2034 4750 
Q 2819 4750 3233 4129 
Q 3647 3509 3647 2328 
Q 3647 1150 3233 529 
Q 2819 -91 2034 -91 
Q 1250 -91 836 529 
Q 422 1150 422 2328 
Q 422 3509 836 4129 
Q 1250 4750 2034 4750 
z
" transform="scale(0.015625)"/>
       </defs>
       <use xlink:href="#DejaVuSans-31"/>
       <use xlink:href="#DejaVuSans-30" x="63.623047"/>
      </g>
     </g>
    </g>
   </g>
   <g id="line2d_14">
    <path d="M 240.982109 70.407412 
L 358.588109 119.121413 
L 343.268909 236.727412 
L 358.588109 354.333412 
L 240.982109 321.217972 
L 142.428282 335.28124 
L 170.462429 236.727412 
L 123.37611 119.121413 
L 240.982109 70.407412 
" clip-path="url(#p50984107a3)" style="fill: none; stroke: #1f77b4; stroke-width: 2; stroke-linecap: square"/>
   </g>
   <g id="patch_4">
    <path d="M 240.982109 70.407412 
C 219.141167 70.407412 197.5126 74.709602 177.334201 83.067769 
C 157.155801 91.425935 138.819988 103.677534 123.37611 119.121413 
C 107.932231 134.565291 95.680632 152.901104 87.322466 173.079504 
C 78.964299 193.257904 74.662109 214.88647 74.662109 236.727412 
C 74.662109 258.568355 78.964299 280.196921 87.322466 300.375321 
C 95.680632 320.553721 107.932231 338.889534 123.37611 354.333412 
C 138.819988 369.777291 157.155801 382.02889 177.334201 390.387056 
C 197.5126 398.745223 219.141167 403.047412 240.982109 403.047412 
C 262.823052 403.047412 284.451618 398.745223 304.630018 390.387056 
C 324.808417 382.02889 343.144231 369.777291 358.588109 354.333412 
C 374.031988 338.889534 386.283586 320.553721 394.641753 300.375321 
C 402.99992 280.196921 407.302109 258.568355 407.302109 236.727412 
C 407.302109 214.88647 402.99992 193.257904 394.641753 173.079504 
C 386.283586 152.901104 374.031988 134.565291 358.588109 119.121413 
C 343.144231 103.677534 324.808417 91.425935 304.630018 83.067769 
C 284.451618 74.709602 262.823052 70.407412 240.982109 70.407412 
" style="fill: none; stroke: #000000; stroke-width: 0.8; stroke-linejoin: miter; stroke-linecap: square"/>
   </g>
   <g id="text_14">
    <!-- Repo KPI Radar — v2.0.6 -->
    <g transform="translate(143.325547 17.837812) scale(0.14 -0.14)">
     <defs>
      <path id="DejaVuSans-Bold-52" d="M 2297 2597 
Q 2675 2597 2839 2737 
Q 3003 2878 3003 3200 
Q 3003 3519 2839 3656 
Q 2675 3794 2297 3794 
L 1791 3794 
L 1791 2597 
L 2297 2597 
z
M 1791 1766 
L 1791 0 
L 588 0 
L 588 4666 
L 2425 4666 
Q 3347 4666 3776 4356 
Q 4206 4047 4206 3378 
Q 4206 2916 3982 2619 
Q 3759 2322 3309 2181 
Q 3556 2125 3751 1926 
Q 3947 1728 4147 1325 
L 4800 0 
L 3519 0 
L 2950 1159 
Q 2778 1509 2601 1637 
Q 2425 1766 2131 1766 
L 1791 1766 
z
" transform="scale(0.015625)"/>
      <path id="DejaVuSans-Bold-65" d="M 4031 1759 
L 4031 1441 
L 1416 1441 
Q 1456 1047 1700 850 
Q 1944 653 2381 653 
Q 2734 653 3104 758 
Q 3475 863 3866 1075 
L 3866 213 
Q 3469 63 3072 -14 
Q 2675 -91 2278 -91 
Q 1328 -91 801 392 
Q 275 875 275 1747 
Q 275 2603 792 3093 
Q 1309 3584 2216 3584 
Q 3041 3584 3536 3087 
Q 4031 2591 4031 1759 
z
M 2881 2131 
Q 2881 2450 2695 2645 
Q 2509 2841 2209 2841 
Q 1884 2841 1681 2658 
Q 1478 2475 1428 2131 
L 2881 2131 
z
" transform="scale(0.015625)"/>
      <path id="DejaVuSans-Bold-70" d="M 1656 506 
L 1656 -1331 
L 538 -1331 
L 538 3500 
L 1656 3500 
L 1656 2988 
Q 1888 3294 2169 3439 
Q 2450 3584 2816 3584 
Q 3463 3584 3878 3070 
Q 4294 2556 4294 1747 
Q 4294 938 3878 423 
Q 3463 -91 2816 -91 
Q 2450 -91 2169 54 
Q 1888 200 1656 506 
z
M 2400 2772 
Q 2041 2772 1848 2508 
Q 1656 2244 1656 1747 
Q 1656 1250 1848 986 
Q 2041 722 2400 722 
Q 2759 722 2948 984 
Q 3138 1247 3138 1747 
Q 3138 2247 2948 2509 
Q 2759 2772 2400 2772 
z
" transform="scale(0.015625)"/>
      <path id="DejaVuSans-Bold-6f" d="M 2203 2784 
Q 1831 2784 1636 2517 
Q 1441 2250 1441 1747 
Q 1441 1244 1636 976 
Q 1831 709 2203 709 
Q 2569 709 2762 976 
Q 2956 1244 2956 1747 
Q 2956 2250 2762 2517 
Q 2569 2784 2203 2784 
z
M 2203 3584 
Q 3106 3584 3614 3096 
Q 4122 2609 4122 1747 
Q 4122 884 3614 396 
Q 3106 -91 2203 -91 
Q 1297 -91 786 396 
Q 275 884 275 1747 
Q 275 2609 786 3096 
Q 1297 3584 2203 3584 
z
" transform="scale(0.015625)"/>
      <path id="DejaVuSans-Bold-20" transform="scale(0.015625)"/>
      <path id="DejaVuSans-Bold-4b" d="M 588 4666 
L 1791 4666 
L 1791 2963 
L 3525 4666 
L 4922 4666 
L 2675 2456 
L 5153 0 
L 3647 0 
L 1791 1838 
L 1791 0 
L 588 0 
L 588 4666 
z
" transform="scale(0.015625)"/>
      <path id="DejaVuSans-Bold-50" d="M 588 4666 
L 2584 4666 
Q 3475 4666 3951 4270 
Q 4428 3875 4428 3144 
Q 4428 2409 3951 2014 
Q 3475 1619 2584 1619 
L 1791 1619 
L 1791 0 
L 588 0 
L 588 4666 
z
M 1791 3794 
L 1791 2491 
L 2456 2491 
Q 2806 2491 2997 2661 
Q 3188 2831 3188 3144 
Q 3188 3456 2997 3625 
Q 2806 3794 2456 3794 
L 1791 3794 
z
" transform="scale(0.015625)"/>
      <path id="DejaVuSans-Bold-49" d="M 588 4666 
L 1791 4666 
L 1791 0 
L 588 0 
L 588 4666 
z
" transform="scale(0.015625)"/>
      <path id="DejaVuSans-Bold-61" d="M 2106 1575 
Q 1756 1575 1579 1456 
Q 1403 1338 1403 1106 
Q 1403 894 1545 773 
Q 1688 653 1941 653 
Q 2256 653 2472 879 
Q 2688 1106 2688 1447 
L 2688 1575 
L 2106 1575 
z
M 3816 1997 
L 3816 0 
L 2688 0 
L 2688 519 
Q 2463 200 2181 54 
Q 1900 -91 1497 -91 
Q 953 -91 614 226 
Q 275 544 275 1050 
Q 275 1666 698 1953 
Q 1122 2241 2028 2241 
L 2688 2241 
L 2688 2328 
Q 2688 2594 2478 2717 
Q 2269 2841 1825 2841 
Q 1466 2841 1156 2769 
Q 847 2697 581 2553 
L 581 3406 
Q 941 3494 1303 3539 
Q 1666 3584 2028 3584 
Q 2975 3584 3395 3211 
Q 3816 2838 3816 1997 
z
" transform="scale(0.015625)"/>
      <path id="DejaVuSans-Bold-64" d="M 2919 2988 
L 2919 4863 
L 4044 4863 
L 4044 0 
L 2919 0 
L 2919 506 
Q 2688 197 2409 53 
Q 2131 -91 1766 -91 
Q 1119 -91 703 423 
Q 288 938 288 1747 
Q 288 2556 703 3070 
Q 1119 3584 1766 3584 
Q 2128 3584 2408 3439 
Q 2688 3294 2919 2988 
z
M 2181 722 
Q 2541 722 2730 984 
Q 2919 1247 2919 1747 
Q 2919 2247 2730 2509 
Q 2541 2772 2181 2772 
Q 1825 2772 1636 2509 
Q 1447 2247 1447 1747 
Q 1447 1247 1636 984 
Q 1825 722 2181 722 
z
" transform="scale(0.015625)"/>
      <path id="DejaVuSans-Bold-72" d="M 3138 2547 
Q 2991 2616 2845 2648 
Q 2700 2681 2553 2681 
Q 2122 2681 1889 2404 
Q 1656 2128 1656 1613 
L 1656 0 
L 538 0 
L 538 3500 
L 1656 3500 
L 1656 2925 
Q 1872 3269 2151 3426 
Q 2431 3584 2822 3584 
Q 2878 3584 2943 3579 
Q 3009 3575 3134 3559 
L 3138 2547 
z
" transform="scale(0.015625)"/>
      <path id="DejaVuSans-Bold-2014" d="M 344 2156 
L 6056 2156 
L 6056 1350 
L 344 1350 
L 344 2156 
z
" transform="scale(0.015625)"/>
      <path id="DejaVuSans-Bold-76" d="M 97 3500 
L 1216 3500 
L 2088 1081 
L 2956 3500 
L 4078 3500 
L 2700 0 
L 1472 0 
L 97 3500 
z
" transform="scale(0.015625)"/>
      <path id="DejaVuSans-Bold-32" d="M 1844 884 
L 3897 884 
L 3897 0 
L 506 0 
L 506 884 
L 2209 2388 
Q 2438 2594 2547 2791 
Q 2656 2988 2656 3200 
Q 2656 3528 2436 3728 
Q 2216 3928 1850 3928 
Q 1569 3928 1234 3808 
Q 900 3688 519 3450 
L 519 4475 
Q 925 4609 1322 4679 
Q 1719 4750 2100 4750 
Q 2938 4750 3402 4381 
Q 3866 4013 3866 3353 
Q 3866 2972 3669 2642 
Q 3472 2313 2841 1759 
L 1844 884 
z
" transform="scale(0.015625)"/>
      <path id="DejaVuSans-Bold-2e" d="M 653 1209 
L 1778 1209 
L 1778 0 
L 653 0 
L 653 1209 
z
" transform="scale(0.015625)"/>
      <path id="DejaVuSans-Bold-30" d="M 2944 2338 
Q 2944 3213 2780 3570 
Q 2616 3928 2228 3928 
Q 1841 3928 1675 3570 
Q 1509 3213 1509 2338 
Q 1509 1453 1675 1090 
Q 1841 728 2228 728 
Q 2613 728 2778 1090 
Q 2944 1453 2944 2338 
z
M 4147 2328 
Q 4147 1169 3647 539 
Q 3147 -91 2228 -91 
Q 1306 -91 806 539 
Q 306 1169 306 2328 
Q 306 3491 806 4120 
Q 1306 4750 2228 4750 
Q 3147 4750 3647 4120 
Q 4147 3491 4147 2328 
z
" transform="scale(0.015625)"/>
      <path id="DejaVuSans-Bold-36" d="M 2316 2303 
Q 2000 2303 1842 2098 
Q 1684 1894 1684 1484 
Q 1684 1075 1842 870 
Q 2000 666 2316 666 
Q 2634 666 2792 870 
Q 2950 1075 2950 1484 
Q 2950 1894 2792 2098 
Q 2634 2303 2316 2303 
z
M 3803 4544 
L 3803 3681 
Q 3506 3822 3243 3889 
Q 2981 3956 2731 3956 
Q 2194 3956 1894 3657 
Q 1594 3359 1544 2772 
Q 1750 2925 1990 3001 
Q 2231 3078 2516 3078 
Q 3231 3078 3670 2659 
Q 4109 2241 4109 1563 
Q 4109 813 3618 361 
Q 3128 -91 2303 -91 
Q 1394 -91 895 523 
Q 397 1138 397 2266 
Q 397 3422 980 4083 
Q 1563 4744 2578 4744 
Q 2900 4744 3203 4694 
Q 3506 4644 3803 4544 
z
" transform="scale(0.015625)"/>
     </defs>
     <use xlink:href="#DejaVuSans-Bold-52"/>
     <use xlink:href="#DejaVuSans-Bold-65" x="77.001953"/>
     <use xlink:href="#DejaVuSans-Bold-70" x="144.824219"/>
     <use xlink:href="#DejaVuSans-Bold-6f" x="216.40625"/>
     <use xlink:href="#DejaVuSans-Bold-20" x="285.107422"/>
     <use xlink:href="#DejaVuSans-Bold-4b" x="319.921875"/>
     <use xlink:href="#DejaVuSans-Bold-50" x="397.412109"/>
     <use xlink:href="#DejaVuSans-Bold-49" x="470.703125"/>
     <use xlink:href="#DejaVuSans-Bold-20" x="507.910156"/>
     <use xlink:href="#DejaVuSans-Bold-52" x="542.724609"/>
     <use xlink:href="#DejaVuSans-Bold-61" x="619.726562"/>
     <use xlink:href="#DejaVuSans-Bold-64" x="687.207031"/>
     <use xlink:href="#DejaVuSans-Bold-61" x="758.789062"/>
     <use xlink:href="#DejaVuSans-Bold-72" x="826.269531"/>
     <use xlink:href="#DejaVuSans-Bold-20" x="875.585938"/>
     <use xlink:href="#DejaVuSans-Bold-2014" x="910.400391"/>
     <use xlink:href="#DejaVuSans-Bold-20" x="1010.400391"/>
     <use xlink:href="#DejaVuSans-Bold-76" x="1045.214844"/>
     <use xlink:href="#DejaVuSans-Bold-32" x="1110.400391"/>
     <use xlink:href="#DejaVuSans-Bold-2e" x="1179.980469"/>
     <use xlink:href="#DejaVuSans-Bold-30" x="1217.96875"/>
     <use xlink:href="#DejaVuSans-Bold-2e" x="1287.548828"/>
     <use xlink:href="#DejaVuSans-Bold-36" x="1325.537109"/>
    </g>
   </g>
  </g>
  <g id="text_15">
   <!-- Scale: 0–10 (rings at 2/4/6/8/10) -->
   <g transform="translate(169.237734 441.927413) scale(0.08 -0.08)">
    <defs>
     <path id="DejaVuSans-3a" d="M 750 794 
L 1409 794 
L 1409 0 
L 750 0 
L 750 794 
z
M 750 3309 
L 1409 3309 
L 1409 2516 
L 750 2516 
L 750 3309 
z
" transform="scale(0.015625)"/>
     <path id="DejaVuSans-2013" d="M 313 1978 
L 2888 1978 
L 2888 1528 
L 313 1528 
L 313 1978 
z
" transform="scale(0.015625)"/>
     <path id="DejaVuSans-28" d="M 1984 4856 
Q 1566 4138 1362 3434 
Q 1159 2731 1159 2009 
Q 1159 1288 1364 580 
Q 1569 -128 1984 -844 
L 1484 -844 
Q 1016 -109 783 600 
Q 550 1309 550 2009 
Q 550 2706 781 3412 
Q 1013 4119 1484 4856 
L 1984 4856 
z
" transform="scale(0.015625)"/>
     <path id="DejaVuSans-2f" d="M 1625 4666 
L 2156 4666 
L 531 -594 
L 0 -594 
L 1625 4666 
z
" transform="scale(0.015625)"/>
     <path id="DejaVuSans-29" d="M 513 4856 
L 1013 4856 
Q 1481 4119 1714 3412 
Q 1947 2706 1947 2009 
Q 1947 1309 1714 600 
Q 1481 -109 1013 -844 
L 513 -844 
Q 928 -128 1133 580 
Q 1338 1288 1338 2009 
Q 1338 2731 1133 3434 
Q 928 4138 513 4856 
z
" transform="scale(0.015625)"/>
    </defs>
    <use xlink:href="#DejaVuSans-53"/>
    <use xlink:href="#DejaVuSans-63" x="63.476562"/>
    <use xlink:href="#DejaVuSans-61" x="118.457031"/>
    <use xlink:href="#DejaVuSans-6c" x="179.736328"/>
    <use xlink:href="#DejaVuSans-65" x="207.519531"/>
    <use xlink:href="#DejaVuSans-3a" x="269.042969"/>
    <use xlink:href="#DejaVuSans-20" x="302.734375"/>
    <use xlink:href="#DejaVuSans-30" x="334.521484"/>
    <use xlink:href="#DejaVuSans-2013" x="398.144531"/>
    <use xlink:href="#DejaVuSans-31" x="448.144531"/>
    <use xlink:href="#DejaVuSans-30" x="511.767578"/>
    <use xlink:href="#DejaVuSans-20" x="575.390625"/>
    <use xlink:href="#DejaVuSans-28" x="607.177734"/>
    <use xlink:href="#DejaVuSans-72" x="646.191406"/>
    <use xlink:href="#DejaVuSans-69" x="687.304688"/>
    <use xlink:href="#DejaVuSans-6e" x="715.087891"/>
    <use xlink:href="#DejaVuSans-67" x="778.466797"/>
    <use xlink:href="#DejaVuSans-73" x="841.943359"/>
    <use xlink:href="#DejaVuSans-20" x="894.042969"/>
    <use xlink:href="#DejaVuSans-61" x="925.830078"/>
    <use xlink:href="#DejaVuSans-74" x="987.109375"/>
    <use xlink:href="#DejaVuSans-20" x="1026.318359"/>
    <use xlink:href="#DejaVuSans-32" x="1058.105469"/>
    <use xlink:href="#DejaVuSans-2f" x="1121.728516"/>
    <use xlink:href="#DejaVuSans-34" x="1155.419922"/>
    <use xlink:href="#DejaVuSans-2f" x="1219.042969"/>
    <use xlink:href="#DejaVuSans-36" x="1252.734375"/>
    <use xlink:href="#DejaVuSans-2f" x="1316.357422"/>
    <use xlink:href="#DejaVuSans-38" x="1350.048828"/>
    <use xlink:href="#DejaVuSans-2f" x="1413.671875"/>
    <use xlink:href="#DejaVuSans-31" x="1447.363281"/>
    <use xlink:href="#DejaVuSans-30" x="1510.986328"/>
    <use xlink:href="#DejaVuSans-29" x="1574.609375"/>
   </g>
  </g>
 </g>
 <defs>
  <clipPath id="p50984107a3">
   <path d="M 407.302109 236.727412 
C 407.302109 214.88647 402.99992 193.257904 394.641753 173.079504 
C 386.283586 152.901104 374.031988 134.565291 358.588109 119.121413 
C 343.144231 103.677534 324.808417 91.425935 304.630018 83.067769 
C 284.451618 74.709602 262.823052 70.407412 240.982109 70.407412 
C 219.141167 70.407412 197.5126 74.709602 177.334201 83.067769 
C 157.155801 91.425935 138.819988 103.677534 123.37611 119.121413 
C 107.932231 134.565291 95.680632 152.901104 87.322466 173.079504 
C 78.964299 193.257904 74.662109 214.88647 74.662109 236.727412 
C 74.662109 258.568355 78.964299 280.196921 87.322466 300.375321 
C 95.680632 320.553721 107.932231 338.889534 123.37611 354.333412 
C 138.819988 369.777291 157.155801 382.02889 177.334201 390.387056 
C 197.5126 398.745223 219.141167 403.047413 240.982109 403.047413 
C 262.823052 403.047413 284.451618 398.745223 304.630018 390.387056 
C 324.808417 382.02889 343.144231 369.777291 358.588109 354.333412 
C 374.031988 338.889534 386.283586 320.553721 394.641753 300.375321 
C 402.99992 280.196921 407.302109 258.568355 407.302109 236.727413 
M 240.982109 236.727412 
C 240.982109 236.727412 240.982109 236.727412 240.982109 236.727412 
C 240.982109 236.727412 240.982109 236.727412 240.982109 236.727412 
C 240.982109 236.727412 240.982109 236.727412 240.982109 236.727412 
C 240.982109 236.727412 240.982109 236.727412 240.982109 236.727412 
C 240.982109 236.727412 240.982109 236.727412 240.982109 236.727412 
C 240.982109 236.727412 240.982109 236.727412 240.982109 236.727412 
C 240.982109 236.727412 240.982109 236.727412 240.982109 236.727412 
C 240.982109 236.727412 240.982109 236.727412 240.982109 236.727412 
C 240.982109 236.727412 240.982109 236.727412 240.982109 236.727412 
C 240.982109 236.727412 240.982109 236.727412 240.982109 236.727412 
C 240.982109 236.727412 240.982109 236.727412 240.982109 236.727412 
C 240.982109 236.727412 240.982109 236.727412 240.982109 236.727412 
C 240.982109 236.727412 240.982109 236.727412 240.982109 236.727412 
C 240.982109 236.727412 240.982109 236.727412 240.982109 236.727412 
C 240.982109 236.727412 240.982109 236.727412 240.982109 236.727412 
C 240.982109 236.727412 240.982109 236.727412 240.982109 236.727412 
z
"/>
  </clipPath>
 </defs>
</svg>
