<?xml version="1.0" encoding="utf-8" standalone="no"?>
<!DOCTYPE svg PUBLIC "-//W3C//DTD SVG 1.1//EN"
  "http://www.w3.org/Graphics/SVG/1.1/DTD/svg11.dtd">
<svg xmlns:xlink="http://www.w3.org/1999/xlink" width="613.482934pt" height="593.264762pt" viewBox="0 0 613.482934 593.264762" xmlns="http://www.w3.org/2000/svg" version="1.1">
 <metadata>
  <rdf:RDF xmlns:dc="http://purl.org/dc/elements/1.1/" xmlns:cc="http://creativecommons.org/ns#" xmlns:rdf="http://www.w3.org/1999/02/22-rdf-syntax-ns#">
   <cc:Work>
    <dc:type rdf:resource="http://purl.org/dc/dcmitype/StillImage"/>
    <dc:date>2026-02-25T20:02:52.167069</dc:date>
    <dc:format>image/svg+xml</dc:format>
    <dc:creator>
     <cc:Agent>
      <dc:title>Matplotlib v3.10.8, https://matplotlib.org/</dc:title>
     </cc:Agent>
    </dc:creator>
   </cc:Work>
  </rdf:RDF>
 </metadata>
 <defs>
  <style type="text/css">*{stroke-linejoin: round; stroke-linecap: butt}</style>
 </defs>
 <g id="figure_1">
  <g id="patch_1">
   <path d="M 0 593.264762 
L 613.482934 593.264762 
L 613.482934 0 
L 0 0 
z
" style="fill: #ffffff"/>
  </g>
  <g id="axes_1">
   <g id="patch_2">
    <path d="M 494.967734 316.561012 
C 494.967734 287.439756 489.231482 258.601667 478.08726 231.697135 
C 466.943037 204.792602 450.607572 180.344851 430.015734 159.753013 
C 409.423896 139.161175 384.976145 122.82571 358.071612 111.681487 
C 331.16708 100.537265 302.328991 94.801012 273.207734 94.801012 
C 244.086478 94.801012 215.248389 100.537265 188.343856 111.681487 
C 161.439324 122.82571 136.991572 139.161175 116.399735 159.753013 
C 95.807897 180.344851 79.472432 204.792602 68.328209 231.697135 
C 57.183987 258.601667 51.447734 287.439756 51.447734 316.561012 
C 51.447734 345.682269 57.183987 374.520358 68.328209 401.42489 
C 79.472432 428.329423 95.807897 452.777174 116.399735 473.369012 
C 136.991572 493.96085 161.439324 510.296315 188.343856 521.440538 
C 215.248389 532.58476 244.086478 538.321012 273.207734 538.321012 
C 302.328991 538.321012 331.16708 532.58476 358.071612 521.440538 
C 384.976145 510.296315 409.423896 493.96085 430.015734 473.369012 
C 450.607572 452.777174 466.943037 428.329423 478.08726 401.42489 
C 489.231482 374.520358 494.967734 345.682269 494.967734 316.561012 
M 273.207734 316.561012 
C 273.207734 316.561012 273.207734 316.561012 273.207734 316.561012 
C 273.207734 316.561012 273.207734 316.561012 273.207734 316.561012 
C 273.207734 316.561012 273.207734 316.561012 273.207734 316.561012 
C 273.207734 316.561012 273.207734 316.561012 273.207734 316.561012 
C 273.207734 316.561012 273.207734 316.561012 273.207734 316.561012 
C 273.207734 316.561012 273.207734 316.561012 273.207734 316.561012 
C 273.207734 316.561012 273.207734 316.561012 273.207734 316.561012 
C 273.207734 316.561012 273.207734 316.561012 273.207734 316.561012 
C 273.207734 316.561012 273.207734 316.561012 273.207734 316.561012 
C 273.207734 316.561012 273.207734 316.561012 273.207734 316.561012 
C 273.207734 316.561012 273.207734 316.561012 273.207734 316.561012 
C 273.207734 316.561012 273.207734 316.561012 273.207734 316.561012 
C 273.207734 316.561012 273.207734 316.561012 273.207734 316.561012 
C 273.207734 316.561012 273.207734 316.561012 273.207734 316.561012 
C 273.207734 316.561012 273.207734 316.561012 273.207734 316.561012 
C 273.207734 316.561012 273.207734 316.561012 273.207734 316.561012 
z
" style="fill: #ffffff"/>
   </g>
   <g id="patch_3">
    <path d="M 273.207734 94.801012 
L 367.292534 222.476213 
L 406.263734 316.561012 
L 430.015734 473.369012 
L 273.207734 435.867892 
L 137.255199 452.513548 
L 172.528694 316.561012 
L 136.314351 179.667629 
z
" clip-path="url(#p7e9ae6f33a)" style="fill: #d62728; opacity: 0.22; stroke: #d62728; stroke-linejoin: miter"/>
   </g>
   <g id="matplotlib.axis_1">
    <g id="xtick_1">
     <g id="line2d_1">
      <path d="M 273.207734 316.561012 
L 273.207734 94.801012 
" clip-path="url(#p7e9ae6f33a)" style="fill: none; stroke-dasharray: 2.96,1.28; stroke-dashoffset: 0; stroke: #b0b0b0; stroke-opacity: 0.25; stroke-width: 0.8"/>
     </g>
     <g id="text_1">
      <!-- Technical -->
      <g transform="translate(252.545 78.245434) scale(0.09 -0.09)">
       <defs>
        <path id="DejaVuSans-54" d="M -19 4666 
L 3928 4666 
L 3928 4134 
L 2272 4134 
L 2272 0 
L 1638 0 
L 1638 4134 
L -19 4134 
L -19 4666 
z
" transform="scale(0.015625)"/>
        <path id="DejaVuSans-65" d="M 3597 1894 
L 3597 1613 
L 953 1613 
Q 991 1019 1311 708 
Q 1631 397 2203 397 
Q 2534 397 2845 478 
Q 3156 559 3463 722 
L 3463 178 
Q 3153 47 2828 -22 
Q 2503 -91 2169 -91 
Q 1331 -91 842 396 
Q 353 884 353 1716 
Q 353 2575 817 3079 
Q 1281 3584 2069 3584 
Q 2775 3584 3186 3129 
Q 3597 2675 3597 1894 
z
M 3022 2063 
Q 3016 2534 2758 2815 
Q 2500 3097 2075 3097 
Q 1594 3097 1305 2825 
Q 1016 2553 972 2059 
L 3022 2063 
z
" transform="scale(0.015625)"/>
        <path id="DejaVuSans-63" d="M 3122 3366 
L 3122 2828 
Q 2878 2963 2633 3030 
Q 2388 3097 2138 3097 
Q 1578 3097 1268 2742 
Q 959 2388 959 1747 
Q 959 1106 1268 751 
Q 1578 397 2138 397 
Q 2388 397 2633 464 
Q 2878 531 3122 666 
L 3122 134 
Q 2881 22 2623 -34 
Q 2366 -91 2075 -91 
Q 1284 -91 818 406 
Q 353 903 353 1747 
Q 353 2603 823 3093 
Q 1294 3584 2113 3584 
Q 2378 3584 2631 3529 
Q 2884 3475 3122 3366 
z
" transform="scale(0.015625)"/>
        <path id="DejaVuSans-68" d="M 3513 2113 
L 3513 0 
L 2938 0 
L 2938 2094 
Q 2938 2591 2744 2837 
Q 2550 3084 2163 3084 
Q 1697 3084 1428 2787 
Q 1159 2491 1159 1978 
L 1159 0 
L 581 0 
L 581 4863 
L 1159 4863 
L 1159 2956 
Q 1366 3272 1645 3428 
Q 1925 3584 2291 3584 
Q 2894 3584 3203 3211 
Q 3513 2838 3513 2113 
z
" transform="scale(0.015625)"/>
        <path id="DejaVuSans-6e" d="M 3513 2113 
L 3513 0 
L 2938 0 
L 2938 2094 
Q 2938 2591 2744 2837 
Q 2550 3084 2163 3084 
Q 1697 3084 1428 2787 
Q 1159 2491 1159 1978 
L 1159 0 
L 581 0 
L 581 3500 
L 1159 3500 
L 1159 2956 
Q 1366 3272 1645 3428 
Q 1925 3584 2291 3584 
Q 2894 3584 3203 3211 
Q 3513 2838 3513 2113 
z
" transform="scale(0.015625)"/>
        <path id="DejaVuSans-69" d="M 603 3500 
L 1178 3500 
L 1178 0 
L 603 0 
L 603 3500 
z
M 603 4863 
L 1178 4863 
L 1178 4134 
L 603 4134 
L 603 4863 
z
" transform="scale(0.015625)"/>
        <path id="DejaVuSans-61" d="M 2194 1759 
Q 1497 1759 1228 1600 
Q 959 1441 959 1056 
Q 959 750 1161 570 
Q 1363 391 1709 391 
Q 2188 391 2477 730 
Q 2766 1069 2766 1631 
L 2766 1759 
L 2194 1759 
z
M 3341 1997 
L 3341 0 
L 2766 0 
L 2766 531 
Q 2569 213 2275 61 
Q 1981 -91 1556 -91 
Q 1019 -91 701 211 
Q 384 513 384 1019 
Q 384 1609 779 1909 
Q 1175 2209 1959 2209 
L 2766 2209 
L 2766 2266 
Q 2766 2663 2505 2880 
Q 2244 3097 1772 3097 
Q 1472 3097 1187 3025 
Q 903 2953 641 2809 
L 641 3341 
Q 956 3463 1253 3523 
Q 1550 3584 1831 3584 
Q 2591 3584 2966 3190 
Q 3341 2797 3341 1997 
z
" transform="scale(0.015625)"/>
        <path id="DejaVuSans-6c" d="M 603 4863 
L 1178 4863 
L 1178 0 
L 603 0 
L 603 4863 
z
" transform="scale(0.015625)"/>
       </defs>
       <use xlink:href="#DejaVuSans-54"/>
       <use xlink:href="#DejaVuSans-65" transform="translate(44.083984 0)"/>
       <use xlink:href="#DejaVuSans-63" transform="translate(105.607422 0)"/>
       <use xlink:href="#DejaVuSans-68" transform="translate(160.587891 0)"/>
       <use xlink:href="#DejaVuSans-6e" transform="translate(223.966797 0)"/>
       <use xlink:href="#DejaVuSans-69" transform="translate(287.345703 0)"/>
       <use xlink:href="#DejaVuSans-63" transform="translate(315.128906 0)"/>
       <use xlink:href="#DejaVuSans-61" transform="translate(370.109375 0)"/>
       <use xlink:href="#DejaVuSans-6c" transform="translate(431.388672 0)"/>
      </g>
      <!-- Completeness -->
      <g transform="translate(241.210625 88.323466) scale(0.09 -0.09)">
       <defs>
        <path id="DejaVuSans-43" d="M 4122 4306 
L 4122 3641 
Q 3803 3938 3442 4084 
Q 3081 4231 2675 4231 
Q 1875 4231 1450 3742 
Q 1025 3253 1025 2328 
Q 1025 1406 1450 917 
Q 1875 428 2675 428 
Q 3081 428 3442 575 
Q 3803 722 4122 1019 
L 4122 359 
Q 3791 134 3420 21 
Q 3050 -91 2638 -91 
Q 1578 -91 968 557 
Q 359 1206 359 2328 
Q 359 3453 968 4101 
Q 1578 4750 2638 4750 
Q 3056 4750 3426 4639 
Q 3797 4528 4122 4306 
z
" transform="scale(0.015625)"/>
        <path id="DejaVuSans-6f" d="M 1959 3097 
Q 1497 3097 1228 2736 
Q 959 2375 959 1747 
Q 959 1119 1226 758 
Q 1494 397 1959 397 
Q 2419 397 2687 759 
Q 2956 1122 2956 1747 
Q 2956 2369 2687 2733 
Q 2419 3097 1959 3097 
z
M 1959 3584 
Q 2709 3584 3137 3096 
Q 3566 2609 3566 1747 
Q 3566 888 3137 398 
Q 2709 -91 1959 -91 
Q 1206 -91 779 398 
Q 353 888 353 1747 
Q 353 2609 779 3096 
Q 1206 3584 1959 3584 
z
" transform="scale(0.015625)"/>
        <path id="DejaVuSans-6d" d="M 3328 2828 
Q 3544 3216 3844 3400 
Q 4144 3584 4550 3584 
Q 5097 3584 5394 3201 
Q 5691 2819 5691 2113 
L 5691 0 
L 5113 0 
L 5113 2094 
Q 5113 2597 4934 2840 
Q 4756 3084 4391 3084 
Q 3944 3084 3684 2787 
Q 3425 2491 3425 1978 
L 3425 0 
L 2847 0 
L 2847 2094 
Q 2847 2600 2669 2842 
Q 2491 3084 2119 3084 
Q 1678 3084 1418 2786 
Q 1159 2488 1159 1978 
L 1159 0 
L 581 0 
L 581 3500 
L 1159 3500 
L 1159 2956 
Q 1356 3278 1631 3431 
Q 1906 3584 2284 3584 
Q 2666 3584 2933 3390 
Q 3200 3197 3328 2828 
z
" transform="scale(0.015625)"/>
        <path id="DejaVuSans-70" d="M 1159 525 
L 1159 -1331 
L 581 -1331 
L 581 3500 
L 1159 3500 
L 1159 2969 
Q 1341 3281 1617 3432 
Q 1894 3584 2278 3584 
Q 2916 3584 3314 3078 
Q 3713 2572 3713 1747 
Q 3713 922 3314 415 
Q 2916 -91 2278 -91 
Q 1894 -91 1617 61 
Q 1341 213 1159 525 
z
M 3116 1747 
Q 3116 2381 2855 2742 
Q 2594 3103 2138 3103 
Q 1681 3103 1420 2742 
Q 1159 2381 1159 1747 
Q 1159 1113 1420 752 
Q 1681 391 2138 391 
Q 2594 391 2855 752 
Q 3116 1113 3116 1747 
z
" transform="scale(0.015625)"/>
        <path id="DejaVuSans-74" d="M 1172 4494 
L 1172 3500 
L 2356 3500 
L 2356 3053 
L 1172 3053 
L 1172 1153 
Q 1172 725 1289 603 
Q 1406 481 1766 481 
L 2356 481 
L 2356 0 
L 1766 0 
Q 1100 0 847 248 
Q 594 497 594 1153 
L 594 3053 
L 172 3053 
L 172 3500 
L 594 3500 
L 594 4494 
L 1172 4494 
z
" transform="scale(0.015625)"/>
        <path id="DejaVuSans-73" d="M 2834 3397 
L 2834 2853 
Q 2591 2978 2328 3040 
Q 2066 3103 1784 3103 
Q 1356 3103 1142 2972 
Q 928 2841 928 2578 
Q 928 2378 1081 2264 
Q 1234 2150 1697 2047 
L 1894 2003 
Q 2506 1872 2764 1633 
Q 3022 1394 3022 966 
Q 3022 478 2636 193 
Q 2250 -91 1575 -91 
Q 1294 -91 989 -36 
Q 684 19 347 128 
L 347 722 
Q 666 556 975 473 
Q 1284 391 1588 391 
Q 1994 391 2212 530 
Q 2431 669 2431 922 
Q 2431 1156 2273 1281 
Q 2116 1406 1581 1522 
L 1381 1569 
Q 847 1681 609 1914 
Q 372 2147 372 2553 
Q 372 3047 722 3315 
Q 1072 3584 1716 3584 
Q 2034 3584 2315 3537 
Q 2597 3491 2834 3397 
z
" transform="scale(0.015625)"/>
       </defs>
       <use xlink:href="#DejaVuSans-43"/>
       <use xlink:href="#DejaVuSans-6f" transform="translate(69.824219 0)"/>
       <use xlink:href="#DejaVuSans-6d" transform="translate(131.005859 0)"/>
       <use xlink:href="#DejaVuSans-70" transform="translate(228.417969 0)"/>
       <use xlink:href="#DejaVuSans-6c" transform="translate(291.894531 0)"/>
       <use xlink:href="#DejaVuSans-65" transform="translate(319.677734 0)"/>
       <use xlink:href="#DejaVuSans-74" transform="translate(381.201172 0)"/>
       <use xlink:href="#DejaVuSans-65" transform="translate(420.410156 0)"/>
       <use xlink:href="#DejaVuSans-6e" transform="translate(481.933594 0)"/>
       <use xlink:href="#DejaVuSans-65" transform="translate(545.3125 0)"/>
       <use xlink:href="#DejaVuSans-73" transform="translate(606.835938 0)"/>
       <use xlink:href="#DejaVuSans-73" transform="translate(658.935547 0)"/>
      </g>
     </g>
    </g>
    <g id="xtick_2">
     <g id="line2d_2">
      <path d="M 273.207734 316.561012 
L 430.015734 159.753013 
" clip-path="url(#p7e9ae6f33a)" style="fill: none; stroke-dasharray: 2.96,1.28; stroke-dashoffset: 0; stroke: #b0b0b0; stroke-opacity: 0.25; stroke-width: 0.8"/>
     </g>
     <g id="text_2">
      <!-- Automation -->
      <g transform="translate(413.706948 147.29794) scale(0.09 -0.09)">
       <defs>
        <path id="DejaVuSans-41" d="M 2188 4044 
L 1331 1722 
L 3047 1722 
L 2188 4044 
z
M 1831 4666 
L 2547 4666 
L 4325 0 
L 3669 0 
L 3244 1197 
L 1141 1197 
L 716 0 
L 50 0 
L 1831 4666 
z
" transform="scale(0.015625)"/>
        <path id="DejaVuSans-75" d="M 544 1381 
L 544 3500 
L 1119 3500 
L 1119 1403 
Q 1119 906 1312 657 
Q 1506 409 1894 409 
Q 2359 409 2629 706 
Q 2900 1003 2900 1516 
L 2900 3500 
L 3475 3500 
L 3475 0 
L 2900 0 
L 2900 538 
Q 2691 219 2414 64 
Q 2138 -91 1772 -91 
Q 1169 -91 856 284 
Q 544 659 544 1381 
z
M 1991 3584 
L 1991 3584 
z
" transform="scale(0.015625)"/>
       </defs>
       <use xlink:href="#DejaVuSans-41"/>
       <use xlink:href="#DejaVuSans-75" transform="translate(68.408203 0)"/>
       <use xlink:href="#DejaVuSans-74" transform="translate(131.787109 0)"/>
       <use xlink:href="#DejaVuSans-6f" transform="translate(170.996094 0)"/>
       <use xlink:href="#DejaVuSans-6d" transform="translate(232.177734 0)"/>
       <use xlink:href="#DejaVuSans-61" transform="translate(329.589844 0)"/>
       <use xlink:href="#DejaVuSans-74" transform="translate(390.869141 0)"/>
       <use xlink:href="#DejaVuSans-69" transform="translate(430.078125 0)"/>
       <use xlink:href="#DejaVuSans-6f" transform="translate(457.861328 0)"/>
       <use xlink:href="#DejaVuSans-6e" transform="translate(519.042969 0)"/>
      </g>
      <!-- Depth -->
      <g transform="translate(426.20851 157.375971) scale(0.09 -0.09)">
       <defs>
        <path id="DejaVuSans-44" d="M 1259 4147 
L 1259 519 
L 2022 519 
Q 2988 519 3436 956 
Q 3884 1394 3884 2338 
Q 3884 3275 3436 3711 
Q 2988 4147 2022 4147 
L 1259 4147 
z
M 628 4666 
L 1925 4666 
Q 3281 4666 3915 4102 
Q 4550 3538 4550 2338 
Q 4550 1131 3912 565 
Q 3275 0 1925 0 
L 628 0 
L 628 4666 
z
" transform="scale(0.015625)"/>
       </defs>
       <use xlink:href="#DejaVuSans-44"/>
       <use xlink:href="#DejaVuSans-65" transform="translate(77.001953 0)"/>
       <use xlink:href="#DejaVuSans-70" transform="translate(138.525391 0)"/>
       <use xlink:href="#DejaVuSans-74" transform="translate(202.001953 0)"/>
       <use xlink:href="#DejaVuSans-68" transform="translate(241.210938 0)"/>
      </g>
     </g>
    </g>
    <g id="xtick_3">
     <g id="line2d_3">
      <path d="M 273.207734 316.561012 
L 494.967734 316.561012 
" clip-path="url(#p7e9ae6f33a)" style="fill: none; stroke-dasharray: 2.96,1.28; stroke-dashoffset: 0; stroke: #b0b0b0; stroke-opacity: 0.25; stroke-width: 0.8"/>
     </g>
     <g id="text_3">
      <!-- Authority -->
      <g transform="translate(488.140469 314.005434) scale(0.09 -0.09)">
       <defs>
        <path id="DejaVuSans-72" d="M 2631 2963 
Q 2534 3019 2420 3045 
Q 2306 3072 2169 3072 
Q 1681 3072 1420 2755 
Q 1159 2438 1159 1844 
L 1159 0 
L 581 0 
L 581 3500 
L 1159 3500 
L 1159 2956 
Q 1341 3275 1631 3429 
Q 1922 3584 2338 3584 
Q 2397 3584 2469 3576 
Q 2541 3569 2628 3553 
L 2631 2963 
z
" transform="scale(0.015625)"/>
        <path id="DejaVuSans-79" d="M 2059 -325 
Q 1816 -950 1584 -1140 
Q 1353 -1331 966 -1331 
L 506 -1331 
L 506 -850 
L 844 -850 
Q 1081 -850 1212 -737 
Q 1344 -625 1503 -206 
L 1606 56 
L 191 3500 
L 800 3500 
L 1894 763 
L 2988 3500 
L 3597 3500 
L 2059 -325 
z
" transform="scale(0.015625)"/>
       </defs>
       <use xlink:href="#DejaVuSans-41"/>
       <use xlink:href="#DejaVuSans-75" transform="translate(68.408203 0)"/>
       <use xlink:href="#DejaVuSans-74" transform="translate(131.787109 0)"/>
       <use xlink:href="#DejaVuSans-68" transform="translate(170.996094 0)"/>
       <use xlink:href="#DejaVuSans-6f" transform="translate(234.375 0)"/>
       <use xlink:href="#DejaVuSans-72" transform="translate(295.556641 0)"/>
       <use xlink:href="#DejaVuSans-69" transform="translate(336.669922 0)"/>
       <use xlink:href="#DejaVuSans-74" transform="translate(364.453125 0)"/>
       <use xlink:href="#DejaVuSans-79" transform="translate(403.662109 0)"/>
      </g>
      <!-- Modeling -->
      <g transform="translate(488.496953 324.083466) scale(0.09 -0.09)">
       <defs>
        <path id="DejaVuSans-4d" d="M 628 4666 
L 1569 4666 
L 2759 1491 
L 3956 4666 
L 4897 4666 
L 4897 0 
L 4281 0 
L 4281 4097 
L 3078 897 
L 2444 897 
L 1241 4097 
L 1241 0 
L 628 0 
L 628 4666 
z
" transform="scale(0.015625)"/>
        <path id="DejaVuSans-64" d="M 2906 2969 
L 2906 4863 
L 3481 4863 
L 3481 0 
L 2906 0 
L 2906 525 
Q 2725 213 2448 61 
Q 2172 -91 1784 -91 
Q 1150 -91 751 415 
Q 353 922 353 1747 
Q 353 2572 751 3078 
Q 1150 3584 1784 3584 
Q 2172 3584 2448 3432 
Q 2725 3281 2906 2969 
z
M 947 1747 
Q 947 1113 1208 752 
Q 1469 391 1925 391 
Q 2381 391 2643 752 
Q 2906 1113 2906 1747 
Q 2906 2381 2643 2742 
Q 2381 3103 1925 3103 
Q 1469 3103 1208 2742 
Q 947 2381 947 1747 
z
" transform="scale(0.015625)"/>
        <path id="DejaVuSans-67" d="M 2906 1791 
Q 2906 2416 2648 2759 
Q 2391 3103 1925 3103 
Q 1463 3103 1205 2759 
Q 947 2416 947 1791 
Q 947 1169 1205 825 
Q 1463 481 1925 481 
Q 2391 481 2648 825 
Q 2906 1169 2906 1791 
z
M 3481 434 
Q 3481 -459 3084 -895 
Q 2688 -1331 1869 -1331 
Q 1566 -1331 1297 -1286 
Q 1028 -1241 775 -1147 
L 775 -588 
Q 1028 -725 1275 -790 
Q 1522 -856 1778 -856 
Q 2344 -856 2625 -561 
Q 2906 -266 2906 331 
L 2906 616 
Q 2728 306 2450 153 
Q 2172 0 1784 0 
Q 1141 0 747 490 
Q 353 981 353 1791 
Q 353 2603 747 3093 
Q 1141 3584 1784 3584 
Q 2172 3584 2450 3431 
Q 2728 3278 2906 2969 
L 2906 3500 
L 3481 3500 
L 3481 434 
z
" transform="scale(0.015625)"/>
       </defs>
       <use xlink:href="#DejaVuSans-4d"/>
       <use xlink:href="#DejaVuSans-6f" transform="translate(86.279297 0)"/>
       <use xlink:href="#DejaVuSans-64" transform="translate(147.460938 0)"/>
       <use xlink:href="#DejaVuSans-65" transform="translate(210.9375 0)"/>
       <use xlink:href="#DejaVuSans-6c" transform="translate(272.460938 0)"/>
       <use xlink:href="#DejaVuSans-69" transform="translate(300.244141 0)"/>
       <use xlink:href="#DejaVuSans-6e" transform="translate(328.027344 0)"/>
       <use xlink:href="#DejaVuSans-67" transform="translate(391.40625 0)"/>
      </g>
     </g>
    </g>
    <g id="xtick_4">
     <g id="line2d_4">
      <path d="M 273.207734 316.561012 
L 430.015734 473.369012 
" clip-path="url(#p7e9ae6f33a)" style="fill: none; stroke-dasharray: 2.96,1.28; stroke-dashoffset: 0; stroke: #b0b0b0; stroke-opacity: 0.25; stroke-width: 0.8"/>
     </g>
     <g id="text_4">
      <!-- Enterprise -->
      <g transform="translate(416.766948 480.712929) scale(0.09 -0.09)">
       <defs>
        <path id="DejaVuSans-45" d="M 628 4666 
L 3578 4666 
L 3578 4134 
L 1259 4134 
L 1259 2753 
L 3481 2753 
L 3481 2222 
L 1259 2222 
L 1259 531 
L 3634 531 
L 3634 0 
L 628 0 
L 628 4666 
z
" transform="scale(0.015625)"/>
       </defs>
       <use xlink:href="#DejaVuSans-45"/>
       <use xlink:href="#DejaVuSans-6e" transform="translate(63.183594 0)"/>
       <use xlink:href="#DejaVuSans-74" transform="translate(126.5625 0)"/>
       <use xlink:href="#DejaVuSans-65" transform="translate(165.771484 0)"/>
       <use xlink:href="#DejaVuSans-72" transform="translate(227.294922 0)"/>
       <use xlink:href="#DejaVuSans-70" transform="translate(268.408203 0)"/>
       <use xlink:href="#DejaVuSans-72" transform="translate(331.884766 0)"/>
       <use xlink:href="#DejaVuSans-69" transform="translate(372.998047 0)"/>
       <use xlink:href="#DejaVuSans-73" transform="translate(400.78125 0)"/>
       <use xlink:href="#DejaVuSans-65" transform="translate(452.880859 0)"/>
      </g>
      <!-- Readiness -->
      <g transform="translate(417.048198 490.79096) scale(0.09 -0.09)">
       <defs>
        <path id="DejaVuSans-52" d="M 2841 2188 
Q 3044 2119 3236 1894 
Q 3428 1669 3622 1275 
L 4263 0 
L 3584 0 
L 2988 1197 
Q 2756 1666 2539 1819 
Q 2322 1972 1947 1972 
L 1259 1972 
L 1259 0 
L 628 0 
L 628 4666 
L 2053 4666 
Q 2853 4666 3247 4331 
Q 3641 3997 3641 3322 
Q 3641 2881 3436 2590 
Q 3231 2300 2841 2188 
z
M 1259 4147 
L 1259 2491 
L 2053 2491 
Q 2509 2491 2742 2702 
Q 2975 2913 2975 3322 
Q 2975 3731 2742 3939 
Q 2509 4147 2053 4147 
L 1259 4147 
z
" transform="scale(0.015625)"/>
       </defs>
       <use xlink:href="#DejaVuSans-52"/>
       <use xlink:href="#DejaVuSans-65" transform="translate(64.982422 0)"/>
       <use xlink:href="#DejaVuSans-61" transform="translate(126.505859 0)"/>
       <use xlink:href="#DejaVuSans-64" transform="translate(187.785156 0)"/>
       <use xlink:href="#DejaVuSans-69" transform="translate(251.261719 0)"/>
       <use xlink:href="#DejaVuSans-6e" transform="translate(279.044922 0)"/>
       <use xlink:href="#DejaVuSans-65" transform="translate(342.423828 0)"/>
       <use xlink:href="#DejaVuSans-73" transform="translate(403.947266 0)"/>
       <use xlink:href="#DejaVuSans-73" transform="translate(456.046875 0)"/>
      </g>
     </g>
    </g>
    <g id="xtick_5">
     <g id="line2d_5">
      <path d="M 273.207734 316.561012 
L 273.207734 538.321012 
" clip-path="url(#p7e9ae6f33a)" style="fill: none; stroke-dasharray: 2.96,1.28; stroke-dashoffset: 0; stroke: #b0b0b0; stroke-opacity: 0.25; stroke-width: 0.8"/>
     </g>
     <g id="text_5">
      <!-- Scalability -->
      <g transform="translate(250.076328 554.80445) scale(0.09 -0.09)">
       <defs>
        <path id="DejaVuSans-53" d="M 3425 4513 
L 3425 3897 
Q 3066 4069 2747 4153 
Q 2428 4238 2131 4238 
Q 1616 4238 1336 4038 
Q 1056 3838 1056 3469 
Q 1056 3159 1242 3001 
Q 1428 2844 1947 2747 
L 2328 2669 
Q 3034 2534 3370 2195 
Q 3706 1856 3706 1288 
Q 3706 609 3251 259 
Q 2797 -91 1919 -91 
Q 1588 -91 1214 -16 
Q 841 59 441 206 
L 441 856 
Q 825 641 1194 531 
Q 1563 422 1919 422 
Q 2459 422 2753 634 
Q 3047 847 3047 1241 
Q 3047 1584 2836 1778 
Q 2625 1972 2144 2069 
L 1759 2144 
Q 1053 2284 737 2584 
Q 422 2884 422 3419 
Q 422 4038 858 4394 
Q 1294 4750 2059 4750 
Q 2388 4750 2728 4690 
Q 3069 4631 3425 4513 
z
" transform="scale(0.015625)"/>
        <path id="DejaVuSans-62" d="M 3116 1747 
Q 3116 2381 2855 2742 
Q 2594 3103 2138 3103 
Q 1681 3103 1420 2742 
Q 1159 2381 1159 1747 
Q 1159 1113 1420 752 
Q 1681 391 2138 391 
Q 2594 391 2855 752 
Q 3116 1113 3116 1747 
z
M 1159 2969 
Q 1341 3281 1617 3432 
Q 1894 3584 2278 3584 
Q 2916 3584 3314 3078 
Q 3713 2572 3713 1747 
Q 3713 922 3314 415 
Q 2916 -91 2278 -91 
Q 1894 -91 1617 61 
Q 1341 213 1159 525 
L 1159 0 
L 581 0 
L 581 4863 
L 1159 4863 
L 1159 2969 
z
" transform="scale(0.015625)"/>
       </defs>
       <use xlink:href="#DejaVuSans-53"/>
       <use xlink:href="#DejaVuSans-63" transform="translate(63.476562 0)"/>
       <use xlink:href="#DejaVuSans-61" transform="translate(118.457031 0)"/>
       <use xlink:href="#DejaVuSans-6c" transform="translate(179.736328 0)"/>
       <use xlink:href="#DejaVuSans-61" transform="translate(207.519531 0)"/>
       <use xlink:href="#DejaVuSans-62" transform="translate(268.798828 0)"/>
       <use xlink:href="#DejaVuSans-69" transform="translate(332.275391 0)"/>
       <use xlink:href="#DejaVuSans-6c" transform="translate(360.058594 0)"/>
       <use xlink:href="#DejaVuSans-69" transform="translate(387.841797 0)"/>
       <use xlink:href="#DejaVuSans-74" transform="translate(415.625 0)"/>
       <use xlink:href="#DejaVuSans-79" transform="translate(454.833984 0)"/>
      </g>
     </g>
    </g>
    <g id="xtick_6">
     <g id="line2d_6">
      <path d="M 273.207734 316.561012 
L 116.399735 473.369012 
" clip-path="url(#p7e9ae6f33a)" style="fill: none; stroke-dasharray: 2.96,1.28; stroke-dashoffset: 0; stroke: #b0b0b0; stroke-opacity: 0.25; stroke-width: 0.8"/>
     </g>
     <g id="text_6">
      <!-- Data -->
      <g transform="translate(95.755787 480.712929) scale(0.09 -0.09)">
       <use xlink:href="#DejaVuSans-44"/>
       <use xlink:href="#DejaVuSans-61" transform="translate(77.001953 0)"/>
       <use xlink:href="#DejaVuSans-74" transform="translate(138.28125 0)"/>
       <use xlink:href="#DejaVuSans-61" transform="translate(177.490234 0)"/>
      </g>
      <!-- Integration -->
      <g transform="translate(81.703833 490.79096) scale(0.09 -0.09)">
       <defs>
        <path id="DejaVuSans-49" d="M 628 4666 
L 1259 4666 
L 1259 0 
L 628 0 
L 628 4666 
z
" transform="scale(0.015625)"/>
       </defs>
       <use xlink:href="#DejaVuSans-49"/>
       <use xlink:href="#DejaVuSans-6e" transform="translate(29.492188 0)"/>
       <use xlink:href="#DejaVuSans-74" transform="translate(92.871094 0)"/>
       <use xlink:href="#DejaVuSans-65" transform="translate(132.080078 0)"/>
       <use xlink:href="#DejaVuSans-67" transform="translate(193.603516 0)"/>
       <use xlink:href="#DejaVuSans-72" transform="translate(257.080078 0)"/>
       <use xlink:href="#DejaVuSans-61" transform="translate(298.193359 0)"/>
       <use xlink:href="#DejaVuSans-74" transform="translate(359.472656 0)"/>
       <use xlink:href="#DejaVuSans-69" transform="translate(398.681641 0)"/>
       <use xlink:href="#DejaVuSans-6f" transform="translate(426.464844 0)"/>
       <use xlink:href="#DejaVuSans-6e" transform="translate(487.646484 0)"/>
      </g>
     </g>
    </g>
    <g id="xtick_7">
     <g id="line2d_7">
      <path d="M 273.207734 316.561012 
L 51.447734 316.561012 
" clip-path="url(#p7e9ae6f33a)" style="fill: none; stroke-dasharray: 2.96,1.28; stroke-dashoffset: 0; stroke: #b0b0b0; stroke-opacity: 0.25; stroke-width: 0.8"/>
     </g>
     <g id="text_7">
      <!-- Economic -->
      <g transform="translate(15.663516 314.005434) scale(0.09 -0.09)">
       <use xlink:href="#DejaVuSans-45"/>
       <use xlink:href="#DejaVuSans-63" transform="translate(63.183594 0)"/>
       <use xlink:href="#DejaVuSans-6f" transform="translate(118.164062 0)"/>
       <use xlink:href="#DejaVuSans-6e" transform="translate(179.345703 0)"/>
       <use xlink:href="#DejaVuSans-6f" transform="translate(242.724609 0)"/>
       <use xlink:href="#DejaVuSans-6d" transform="translate(303.90625 0)"/>
       <use xlink:href="#DejaVuSans-69" transform="translate(401.318359 0)"/>
       <use xlink:href="#DejaVuSans-63" transform="translate(429.101562 0)"/>
      </g>
      <!-- Measurability -->
      <g transform="translate(7.2 324.083466) scale(0.09 -0.09)">
       <use xlink:href="#DejaVuSans-4d"/>
       <use xlink:href="#DejaVuSans-65" transform="translate(86.279297 0)"/>
       <use xlink:href="#DejaVuSans-61" transform="translate(147.802734 0)"/>
       <use xlink:href="#DejaVuSans-73" transform="translate(209.082031 0)"/>
       <use xlink:href="#DejaVuSans-75" transform="translate(261.181641 0)"/>
       <use xlink:href="#DejaVuSans-72" transform="translate(324.560547 0)"/>
       <use xlink:href="#DejaVuSans-61" transform="translate(365.673828 0)"/>
       <use xlink:href="#DejaVuSans-62" transform="translate(426.953125 0)"/>
       <use xlink:href="#DejaVuSans-69" transform="translate(490.429688 0)"/>
       <use xlink:href="#DejaVuSans-6c" transform="translate(518.212891 0)"/>
       <use xlink:href="#DejaVuSans-69" transform="translate(545.996094 0)"/>
       <use xlink:href="#DejaVuSans-74" transform="translate(573.779297 0)"/>
       <use xlink:href="#DejaVuSans-79" transform="translate(612.988281 0)"/>
      </g>
     </g>
    </g>
    <g id="xtick_8">
     <g id="line2d_8">
      <path d="M 273.207734 316.561012 
L 116.399735 159.753013 
" clip-path="url(#p7e9ae6f33a)" style="fill: none; stroke-dasharray: 2.96,1.28; stroke-dashoffset: 0; stroke: #b0b0b0; stroke-opacity: 0.25; stroke-width: 0.8"/>
     </g>
     <g id="text_8">
      <!-- Operational -->
      <g transform="translate(80.097193 147.29794) scale(0.09 -0.09)">
       <defs>
        <path id="DejaVuSans-4f" d="M 2522 4238 
Q 1834 4238 1429 3725 
Q 1025 3213 1025 2328 
Q 1025 1447 1429 934 
Q 1834 422 2522 422 
Q 3209 422 3611 934 
Q 4013 1447 4013 2328 
Q 4013 3213 3611 3725 
Q 3209 4238 2522 4238 
z
M 2522 4750 
Q 3503 4750 4090 4092 
Q 4678 3434 4678 2328 
Q 4678 1225 4090 567 
Q 3503 -91 2522 -91 
Q 1538 -91 948 565 
Q 359 1222 359 2328 
Q 359 3434 948 4092 
Q 1538 4750 2522 4750 
z
" transform="scale(0.015625)"/>
       </defs>
       <use xlink:href="#DejaVuSans-4f"/>
       <use xlink:href="#DejaVuSans-70" transform="translate(78.710938 0)"/>
       <use xlink:href="#DejaVuSans-65" transform="translate(142.1875 0)"/>
       <use xlink:href="#DejaVuSans-72" transform="translate(203.710938 0)"/>
       <use xlink:href="#DejaVuSans-61" transform="translate(244.824219 0)"/>
       <use xlink:href="#DejaVuSans-74" transform="translate(306.103516 0)"/>
       <use xlink:href="#DejaVuSans-69" transform="translate(345.3125 0)"/>
       <use xlink:href="#DejaVuSans-6f" transform="translate(373.095703 0)"/>
       <use xlink:href="#DejaVuSans-6e" transform="translate(434.277344 0)"/>
       <use xlink:href="#DejaVuSans-61" transform="translate(497.65625 0)"/>
       <use xlink:href="#DejaVuSans-6c" transform="translate(558.935547 0)"/>
      </g>
      <!-- Maturity -->
      <g transform="translate(87.716255 157.375971) scale(0.09 -0.09)">
       <use xlink:href="#DejaVuSans-4d"/>
       <use xlink:href="#DejaVuSans-61" transform="translate(86.279297 0)"/>
       <use xlink:href="#DejaVuSans-74" transform="translate(147.558594 0)"/>
       <use xlink:href="#DejaVuSans-75" transform="translate(186.767578 0)"/>
       <use xlink:href="#DejaVuSans-72" transform="translate(250.146484 0)"/>
       <use xlink:href="#DejaVuSans-69" transform="translate(291.259766 0)"/>
       <use xlink:href="#DejaVuSans-74" transform="translate(319.042969 0)"/>
       <use xlink:href="#DejaVuSans-79" transform="translate(358.251953 0)"/>
      </g>
     </g>
    </g>
   </g>
   <g id="matplotlib.axis_2">
    <g id="ytick_1">
     <g id="line2d_9">
      <path d="M 273.207734 272.209012 
C 279.031986 272.209012 284.799603 273.356263 290.18051 275.585107 
C 295.561417 277.813952 300.450967 281.081045 304.569334 285.199413 
C 308.687702 289.31778 311.954795 294.20733 314.183639 299.588237 
C 316.412484 304.969143 317.559734 310.736761 317.559734 316.561012 
C 317.559734 322.385264 316.412484 328.152882 314.183639 333.533788 
C 311.954795 338.914695 308.687702 343.804245 304.569334 347.922612 
C 300.450967 352.04098 295.561417 355.308073 290.18051 357.536918 
C 284.799603 359.765762 279.031986 360.913012 273.207734 360.913012 
C 267.383483 360.913012 261.615865 359.765762 256.234959 357.536918 
C 250.854052 355.308073 245.964502 352.04098 241.846134 347.922612 
C 237.727767 343.804245 234.460674 338.914695 232.231829 333.533788 
C 230.002985 328.152882 228.855734 322.385264 228.855734 316.561012 
C 228.855734 310.736761 230.002985 304.969143 232.231829 299.588237 
C 234.460674 294.20733 237.727767 289.31778 241.846134 285.199413 
C 245.964502 281.081045 250.854052 277.813952 256.234959 275.585107 
C 261.615865 273.356263 267.383483 272.209012 273.207734 272.209012 
" clip-path="url(#p7e9ae6f33a)" style="fill: none; stroke-dasharray: 2.96,1.28; stroke-dashoffset: 0; stroke: #b0b0b0; stroke-opacity: 0.25; stroke-width: 0.8"/>
     </g>
     <g id="text_9">
      <!-- 2 -->
      <g transform="translate(317.559734 314.897262) scale(0.08 -0.08)">
       <defs>
        <path id="DejaVuSans-32" d="M 1228 531 
L 3431 531 
L 3431 0 
L 469 0 
L 469 531 
Q 828 903 1448 1529 
Q 2069 2156 2228 2338 
Q 2531 2678 2651 2914 
Q 2772 3150 2772 3378 
Q 2772 3750 2511 3984 
Q 2250 4219 1831 4219 
Q 1534 4219 1204 4116 
Q 875 4013 500 3803 
L 500 4441 
Q 881 4594 1212 4672 
Q 1544 4750 1819 4750 
Q 2544 4750 2975 4387 
Q 3406 4025 3406 3419 
Q 3406 3131 3298 2873 
Q 3191 2616 2906 2266 
Q 2828 2175 2409 1742 
Q 1991 1309 1228 531 
z
" transform="scale(0.015625)"/>
       </defs>
       <use xlink:href="#DejaVuSans-32"/>
      </g>
     </g>
    </g>
    <g id="ytick_2">
     <g id="line2d_10">
      <path d="M 273.207734 227.857012 
C 284.856237 227.857012 296.391472 230.151514 307.153286 234.609202 
C 317.915099 239.066891 327.694199 245.601077 335.930934 253.837813 
C 344.167669 262.074548 350.701855 271.853648 355.159544 282.615461 
C 359.617233 293.377274 361.911734 304.91251 361.911734 316.561012 
C 361.911734 328.209515 359.617233 339.744751 355.159544 350.506564 
C 350.701855 361.268377 344.167669 371.047477 335.930934 379.284212 
C 327.694199 387.520948 317.915099 394.055134 307.153286 398.512823 
C 296.391472 402.970511 284.856237 405.265012 273.207734 405.265012 
C 261.559232 405.265012 250.023996 402.970511 239.262183 398.512823 
C 228.50037 394.055134 218.72127 387.520948 210.484534 379.284212 
C 202.247799 371.047477 195.713613 361.268377 191.255924 350.506564 
C 186.798235 339.744751 184.503734 328.209515 184.503734 316.561012 
C 184.503734 304.91251 186.798235 293.377274 191.255924 282.615461 
C 195.713613 271.853648 202.247799 262.074548 210.484534 253.837813 
C 218.72127 245.601077 228.50037 239.066891 239.262183 234.609202 
C 250.023996 230.151514 261.559232 227.857012 273.207734 227.857012 
" clip-path="url(#p7e9ae6f33a)" style="fill: none; stroke-dasharray: 2.96,1.28; stroke-dashoffset: 0; stroke: #b0b0b0; stroke-opacity: 0.25; stroke-width: 0.8"/>
     </g>
     <g id="text_10">
      <!-- 4 -->
      <g transform="translate(361.911734 314.897262) scale(0.08 -0.08)">
       <defs>
        <path id="DejaVuSans-34" d="M 2419 4116 
L 825 1625 
L 2419 1625 
L 2419 4116 
z
M 2253 4666 
L 3047 4666 
L 3047 1625 
L 3713 1625 
L 3713 1100 
L 3047 1100 
L 3047 0 
L 2419 0 
L 2419 1100 
L 313 1100 
L 313 1709 
L 2253 4666 
z
" transform="scale(0.015625)"/>
       </defs>
       <use xlink:href="#DejaVuSans-34"/>
      </g>
     </g>
    </g>
    <g id="ytick_3">
     <g id="line2d_11">
      <path d="M 273.207734 183.505012 
C 290.680488 183.505012 307.983342 186.946764 324.126061 193.633297 
C 340.268781 200.319831 354.937432 210.12111 367.292534 222.476213 
C 379.647637 234.831315 389.448916 249.499966 396.135449 265.642686 
C 402.821983 281.785405 406.263734 299.088259 406.263734 316.561012 
C 406.263734 334.033766 402.821983 351.33662 396.135449 367.479339 
C 389.448916 383.622059 379.647637 398.29071 367.292534 410.645812 
C 354.937432 423.000915 340.268781 432.802194 324.126061 439.488728 
C 307.983342 446.175261 290.680488 449.617012 273.207734 449.617012 
C 255.734981 449.617012 238.432127 446.175261 222.289408 439.488728 
C 206.146688 432.802194 191.478037 423.000915 179.122934 410.645812 
C 166.767832 398.29071 156.966553 383.622059 150.280019 367.479339 
C 143.593486 351.33662 140.151734 334.033766 140.151734 316.561012 
C 140.151734 299.088259 143.593486 281.785405 150.280019 265.642686 
C 156.966553 249.499966 166.767832 234.831315 179.122934 222.476213 
C 191.478037 210.12111 206.146688 200.319831 222.289408 193.633297 
C 238.432127 186.946764 255.734981 183.505012 273.207734 183.505012 
" clip-path="url(#p7e9ae6f33a)" style="fill: none; stroke-dasharray: 2.96,1.28; stroke-dashoffset: 0; stroke: #b0b0b0; stroke-opacity: 0.25; stroke-width: 0.8"/>
     </g>
     <g id="text_11">
      <!-- 6 -->
      <g transform="translate(406.263734 314.897262) scale(0.08 -0.08)">
       <defs>
        <path id="DejaVuSans-36" d="M 2113 2584 
Q 1688 2584 1439 2293 
Q 1191 2003 1191 1497 
Q 1191 994 1439 701 
Q 1688 409 2113 409 
Q 2538 409 2786 701 
Q 3034 994 3034 1497 
Q 3034 2003 2786 2293 
Q 2538 2584 2113 2584 
z
M 3366 4563 
L 3366 3988 
Q 3128 4100 2886 4159 
Q 2644 4219 2406 4219 
Q 1781 4219 1451 3797 
Q 1122 3375 1075 2522 
Q 1259 2794 1537 2939 
Q 1816 3084 2150 3084 
Q 2853 3084 3261 2657 
Q 3669 2231 3669 1497 
Q 3669 778 3244 343 
Q 2819 -91 2113 -91 
Q 1303 -91 875 529 
Q 447 1150 447 2328 
Q 447 3434 972 4092 
Q 1497 4750 2381 4750 
Q 2619 4750 2861 4703 
Q 3103 4656 3366 4563 
z
" transform="scale(0.015625)"/>
       </defs>
       <use xlink:href="#DejaVuSans-36"/>
      </g>
     </g>
    </g>
    <g id="ytick_4">
     <g id="line2d_12">
      <path d="M 273.207734 139.153012 
C 296.504739 139.153012 319.575211 143.742015 341.098837 152.657392 
C 362.622463 161.57277 382.180664 174.641142 398.654134 191.114613 
C 415.127605 207.588083 428.195977 227.146284 437.111354 248.66991 
C 446.026732 270.193536 450.615734 293.264007 450.615734 316.561012 
C 450.615734 339.858018 446.026732 362.928489 437.111354 384.452115 
C 428.195977 405.975741 415.127605 425.533942 398.654134 442.007412 
C 382.180664 458.480883 362.622463 471.549255 341.098837 480.464633 
C 319.575211 489.38001 296.504739 493.969012 273.207734 493.969012 
C 249.910729 493.969012 226.840258 489.38001 205.316632 480.464633 
C 183.793006 471.549255 164.234805 458.480883 147.761335 442.007412 
C 131.287864 425.533942 118.219492 405.975741 109.304114 384.452115 
C 100.388736 362.928489 95.799734 339.858018 95.799734 316.561012 
C 95.799734 293.264007 100.388736 270.193536 109.304114 248.66991 
C 118.219492 227.146284 131.287864 207.588083 147.761335 191.114613 
C 164.234805 174.641142 183.793006 161.57277 205.316632 152.657392 
C 226.840258 143.742015 249.910729 139.153012 273.207734 139.153012 
" clip-path="url(#p7e9ae6f33a)" style="fill: none; stroke-dasharray: 2.96,1.28; stroke-dashoffset: 0; stroke: #b0b0b0; stroke-opacity: 0.25; stroke-width: 0.8"/>
     </g>
     <g id="text_12">
      <!-- 8 -->
      <g transform="translate(450.615734 314.897262) scale(0.08 -0.08)">
       <defs>
        <path id="DejaVuSans-38" d="M 2034 2216 
Q 1584 2216 1326 1975 
Q 1069 1734 1069 1313 
Q 1069 891 1326 650 
Q 1584 409 2034 409 
Q 2484 409 2743 651 
Q 3003 894 3003 1313 
Q 3003 1734 2745 1975 
Q 2488 2216 2034 2216 
z
M 1403 2484 
Q 997 2584 770 2862 
Q 544 3141 544 3541 
Q 544 4100 942 4425 
Q 1341 4750 2034 4750 
Q 2731 4750 3128 4425 
Q 3525 4100 3525 3541 
Q 3525 3141 3298 2862 
Q 3072 2584 2669 2484 
Q 3125 2378 3379 2068 
Q 3634 1759 3634 1313 
Q 3634 634 3220 271 
Q 2806 -91 2034 -91 
Q 1263 -91 848 271 
Q 434 634 434 1313 
Q 434 1759 690 2068 
Q 947 2378 1403 2484 
z
M 1172 3481 
Q 1172 3119 1398 2916 
Q 1625 2713 2034 2713 
Q 2441 2713 2670 2916 
Q 2900 3119 2900 3481 
Q 2900 3844 2670 4047 
Q 2441 4250 2034 4250 
Q 1625 4250 1398 4047 
Q 1172 3844 1172 3481 
z
" transform="scale(0.015625)"/>
       </defs>
       <use xlink:href="#DejaVuSans-38"/>
      </g>
     </g>
    </g>
    <g id="ytick_5">
     <g id="line2d_13">
      <path d="M 273.207734 94.801012 
C 302.328991 94.801012 331.16708 100.537265 358.071612 111.681487 
C 384.976145 122.82571 409.423896 139.161175 430.015734 159.753013 
C 450.607572 180.344851 466.943037 204.792602 478.08726 231.697135 
C 489.231482 258.601667 494.967734 287.439756 494.967734 316.561012 
C 494.967734 345.682269 489.231482 374.520358 478.08726 401.42489 
C 466.943037 428.329423 450.607572 452.777174 430.015734 473.369012 
C 409.423896 493.96085 384.976145 510.296315 358.071612 521.440538 
C 331.16708 532.58476 302.328991 538.321012 273.207734 538.321012 
C 244.086478 538.321012 215.248389 532.58476 188.343856 521.440538 
C 161.439324 510.296315 136.991572 493.96085 116.399735 473.369012 
C 95.807897 452.777174 79.472432 428.329423 68.328209 401.42489 
C 57.183987 374.520358 51.447734 345.682269 51.447734 316.561012 
C 51.447734 287.439756 57.183987 258.601667 68.328209 231.697135 
C 79.472432 204.792602 95.807897 180.344851 116.399735 159.753013 
C 136.991572 139.161175 161.439324 122.82571 188.343856 111.681487 
C 215.248389 100.537265 244.086478 94.801012 273.207734 94.801012 
" clip-path="url(#p7e9ae6f33a)" style="fill: none; stroke-dasharray: 2.96,1.28; stroke-dashoffset: 0; stroke: #b0b0b0; stroke-opacity: 0.25; stroke-width: 0.8"/>
     </g>
     <g id="text_13">
      <!-- 10 -->
      <g transform="translate(494.967734 314.897262) scale(0.08 -0.08)">
       <defs>
        <path id="DejaVuSans-31" d="M 794 531 
L 1825 531 
L 1825 4091 
L 703 3866 
L 703 4441 
L 1819 4666 
L 2450 4666 
L 2450 531 
L 3481 531 
L 3481 0 
L 794 0 
L 794 531 
z
" transform="scale(0.015625)"/>
        <path id="DejaVuSans-30" d="M 2034 4250 
Q 1547 4250 1301 3770 
Q 1056 3291 1056 2328 
Q 1056 1369 1301 889 
Q 1547 409 2034 409 
Q 2525 409 2770 889 
Q 3016 1369 3016 2328 
Q 3016 3291 2770 3770 
Q 2525 4250 2034 4250 
z
M 2034 4750 
Q 2819 4750 3233 4129 
Q 3647 3509 3647 2328 
Q 3647 1150 3233 529 
Q 2819 -91 2034 -91 
Q 1250 -91 836 529 
Q 422 1150 422 2328 
Q 422 3509 836 4129 
Q 1250 4750 2034 4750 
z
" transform="scale(0.015625)"/>
       </defs>
       <use xlink:href="#DejaVuSans-31"/>
       <use xlink:href="#DejaVuSans-30" transform="translate(63.623047 0)"/>
      </g>
     </g>
    </g>
   </g>
   <g id="line2d_14">
    <path d="M 273.207734 94.801012 
L 430.015734 159.753013 
L 409.590134 316.561012 
L 430.015734 473.369012 
L 273.207734 429.215092 
L 141.802631 447.966116 
L 201.357494 316.561012 
L 116.399735 159.753013 
L 273.207734 94.801012 
" clip-path="url(#p7e9ae6f33a)" style="fill: none; stroke-dasharray: 6.4,3.2; stroke-dashoffset: 0; stroke: #1f77b4; stroke-opacity: 0.85; stroke-width: 1.6"/>
   </g>
   <g id="line2d_15">
    <path d="M 273.207734 94.801012 
L 430.015734 159.753013 
L 409.590134 316.561012 
L 430.015734 473.369012 
L 273.207734 429.215092 
L 141.802631 447.966116 
L 179.181494 316.561012 
L 116.399735 159.753013 
L 273.207734 94.801012 
" clip-path="url(#p7e9ae6f33a)" style="fill: none; stroke-dasharray: 6.4,3.2; stroke-dashoffset: 0; stroke: #2ca02c; stroke-opacity: 0.85; stroke-width: 1.6"/>
   </g>
   <g id="line2d_16">
    <path d="M 273.207734 94.801012 
L 367.292534 222.476213 
L 406.263734 316.561012 
L 430.015734 473.369012 
L 273.207734 435.867892 
L 137.255199 452.513548 
L 172.528694 316.561012 
L 136.314351 179.667629 
L 273.207734 94.801012 
" clip-path="url(#p7e9ae6f33a)" style="fill: none; stroke: #d62728; stroke-width: 2.8; stroke-linecap: square"/>
   </g>
   <g id="patch_4">
    <path d="M 273.207734 94.801012 
C 244.086478 94.801012 215.248389 100.537265 188.343856 111.681487 
C 161.439324 122.82571 136.991572 139.161175 116.399735 159.753013 
C 95.807897 180.344851 79.472432 204.792602 68.328209 231.697135 
C 57.183987 258.601667 51.447734 287.439756 51.447734 316.561012 
C 51.447734 345.682269 57.183987 374.520358 68.328209 401.42489 
C 79.472432 428.329423 95.807897 452.777174 116.399735 473.369012 
C 136.991572 493.96085 161.439324 510.296315 188.343856 521.440538 
C 215.248389 532.58476 244.086478 538.321012 273.207734 538.321012 
C 302.328991 538.321012 331.16708 532.58476 358.071612 521.440538 
C 384.976145 510.296315 409.423896 493.96085 430.015734 473.369012 
C 450.607572 452.777174 466.943037 428.329423 478.08726 401.42489 
C 489.231482 374.520358 494.967734 345.682269 494.967734 316.561012 
C 494.967734 287.439756 489.231482 258.601667 478.08726 231.697135 
C 466.943037 204.792602 450.607572 180.344851 430.015734 159.753013 
C 409.423896 139.161175 384.976145 122.82571 358.071612 111.681487 
C 331.16708 100.537265 302.328991 94.801012 273.207734 94.801012 
" style="fill: none; stroke: #000000; stroke-width: 0.8; stroke-linejoin: miter; stroke-linecap: square"/>
   </g>
   <g id="text_14">
    <!-- Repo KPI Composite Radar (Release Comparison) -->
    <g transform="translate(78.779453 17.837812) scale(0.14 -0.14)">
     <defs>
      <path id="DejaVuSans-Bold-52" d="M 2297 2597 
Q 2675 2597 2839 2737 
Q 3003 2878 3003 3200 
Q 3003 3519 2839 3656 
Q 2675 3794 2297 3794 
L 1791 3794 
L 1791 2597 
L 2297 2597 
z
M 1791 1766 
L 1791 0 
L 588 0 
L 588 4666 
L 2425 4666 
Q 3347 4666 3776 4356 
Q 4206 4047 4206 3378 
Q 4206 2916 3982 2619 
Q 3759 2322 3309 2181 
Q 3556 2125 3751 1926 
Q 3947 1728 4147 1325 
L 4800 0 
L 3519 0 
L 2950 1159 
Q 2778 1509 2601 1637 
Q 2425 1766 2131 1766 
L 1791 1766 
z
" transform="scale(0.015625)"/>
      <path id="DejaVuSans-Bold-65" d="M 4031 1759 
L 4031 1441 
L 1416 1441 
Q 1456 1047 1700 850 
Q 1944 653 2381 653 
Q 2734 653 3104 758 
Q 3475 863 3866 1075 
L 3866 213 
Q 3469 63 3072 -14 
Q 2675 -91 2278 -91 
Q 1328 -91 801 392 
Q 275 875 275 1747 
Q 275 2603 792 3093 
Q 1309 3584 2216 3584 
Q 3041 3584 3536 3087 
Q 4031 2591 4031 1759 
z
M 2881 2131 
Q 2881 2450 2695 2645 
Q 2509 2841 2209 2841 
Q 1884 2841 1681 2658 
Q 1478 2475 1428 2131 
L 2881 2131 
z
" transform="scale(0.015625)"/>
      <path id="DejaVuSans-Bold-70" d="M 1656 506 
L 1656 -1331 
L 538 -1331 
L 538 3500 
L 1656 3500 
L 1656 2988 
Q 1888 3294 2169 3439 
Q 2450 3584 2816 3584 
Q 3463 3584 3878 3070 
Q 4294 2556 4294 1747 
Q 4294 938 3878 423 
Q 3463 -91 2816 -91 
Q 2450 -91 2169 54 
Q 1888 200 1656 506 
z
M 2400 2772 
Q 2041 2772 1848 2508 
Q 1656 2244 1656 1747 
Q 1656 1250 1848 986 
Q 2041 722 2400 722 
Q 2759 722 2948 984 
Q 3138 1247 3138 1747 
Q 3138 2247 2948 2509 
Q 2759 2772 2400 2772 
z
" transform="scale(0.015625)"/>
      <path id="DejaVuSans-Bold-6f" d="M 2203 2784 
Q 1831 2784 1636 2517 
Q 1441 2250 1441 1747 
Q 1441 1244 1636 976 
Q 1831 709 2203 709 
Q 2569 709 2762 976 
Q 2956 1244 2956 1747 
Q 2956 2250 2762 2517 
Q 2569 2784 2203 2784 
z
M 2203 3584 
Q 3106 3584 3614 3096 
Q 4122 2609 4122 1747 
Q 4122 884 3614 396 
Q 3106 -91 2203 -91 
Q 1297 -91 786 396 
Q 275 884 275 1747 
Q 275 2609 786 3096 
Q 1297 3584 2203 3584 
z
" transform="scale(0.015625)"/>
      <path id="DejaVuSans-Bold-20" transform="scale(0.015625)"/>
      <path id="DejaVuSans-Bold-4b" d="M 588 4666 
L 1791 4666 
L 1791 2963 
L 3525 4666 
L 4922 4666 
L 2675 2456 
L 5153 0 
L 3647 0 
L 1791 1838 
L 1791 0 
L 588 0 
L 588 4666 
z
" transform="scale(0.015625)"/>
      <path id="DejaVuSans-Bold-50" d="M 588 4666 
L 2584 4666 
Q 3475 4666 3951 4270 
Q 4428 3875 4428 3144 
Q 4428 2409 3951 2014 
Q 3475 1619 2584 1619 
L 1791 1619 
L 1791 0 
L 588 0 
L 588 4666 
z
M 1791 3794 
L 1791 2491 
L 2456 2491 
Q 2806 2491 2997 2661 
Q 3188 2831 3188 3144 
Q 3188 3456 2997 3625 
Q 2806 3794 2456 3794 
L 1791 3794 
z
" transform="scale(0.015625)"/>
      <path id="DejaVuSans-Bold-49" d="M 588 4666 
L 1791 4666 
L 1791 0 
L 588 0 
L 588 4666 
z
" transform="scale(0.015625)"/>
      <path id="DejaVuSans-Bold-43" d="M 4288 256 
Q 3956 84 3597 -3 
Q 3238 -91 2847 -91 
Q 1681 -91 1000 561 
Q 319 1213 319 2328 
Q 319 3447 1000 4098 
Q 1681 4750 2847 4750 
Q 3238 4750 3597 4662 
Q 3956 4575 4288 4403 
L 4288 3438 
Q 3953 3666 3628 3772 
Q 3303 3878 2944 3878 
Q 2300 3878 1931 3465 
Q 1563 3053 1563 2328 
Q 1563 1606 1931 1193 
Q 2300 781 2944 781 
Q 3303 781 3628 887 
Q 3953 994 4288 1222 
L 4288 256 
z
" transform="scale(0.015625)"/>
      <path id="DejaVuSans-Bold-6d" d="M 3781 2919 
Q 3994 3244 4286 3414 
Q 4578 3584 4928 3584 
Q 5531 3584 5847 3212 
Q 6163 2841 6163 2131 
L 6163 0 
L 5038 0 
L 5038 1825 
Q 5041 1866 5042 1909 
Q 5044 1953 5044 2034 
Q 5044 2406 4934 2573 
Q 4825 2741 4581 2741 
Q 4263 2741 4089 2478 
Q 3916 2216 3909 1719 
L 3909 0 
L 2784 0 
L 2784 1825 
Q 2784 2406 2684 2573 
Q 2584 2741 2328 2741 
Q 2006 2741 1831 2477 
Q 1656 2213 1656 1722 
L 1656 0 
L 531 0 
L 531 3500 
L 1656 3500 
L 1656 2988 
Q 1863 3284 2130 3434 
Q 2397 3584 2719 3584 
Q 3081 3584 3359 3409 
Q 3638 3234 3781 2919 
z
" transform="scale(0.015625)"/>
      <path id="DejaVuSans-Bold-73" d="M 3272 3391 
L 3272 2541 
Q 2913 2691 2578 2766 
Q 2244 2841 1947 2841 
Q 1628 2841 1473 2761 
Q 1319 2681 1319 2516 
Q 1319 2381 1436 2309 
Q 1553 2238 1856 2203 
L 2053 2175 
Q 2913 2066 3209 1816 
Q 3506 1566 3506 1031 
Q 3506 472 3093 190 
Q 2681 -91 1863 -91 
Q 1516 -91 1145 -36 
Q 775 19 384 128 
L 384 978 
Q 719 816 1070 734 
Q 1422 653 1784 653 
Q 2113 653 2278 743 
Q 2444 834 2444 1013 
Q 2444 1163 2330 1236 
Q 2216 1309 1875 1350 
L 1678 1375 
Q 931 1469 631 1722 
Q 331 1975 331 2491 
Q 331 3047 712 3315 
Q 1094 3584 1881 3584 
Q 2191 3584 2531 3537 
Q 2872 3491 3272 3391 
z
" transform="scale(0.015625)"/>
      <path id="DejaVuSans-Bold-69" d="M 538 3500 
L 1656 3500 
L 1656 0 
L 538 0 
L 538 3500 
z
M 538 4863 
L 1656 4863 
L 1656 3950 
L 538 3950 
L 538 4863 
z
" transform="scale(0.015625)"/>
      <path id="DejaVuSans-Bold-74" d="M 1759 4494 
L 1759 3500 
L 2913 3500 
L 2913 2700 
L 1759 2700 
L 1759 1216 
Q 1759 972 1856 886 
Q 1953 800 2241 800 
L 2816 800 
L 2816 0 
L 1856 0 
Q 1194 0 917 276 
Q 641 553 641 1216 
L 641 2700 
L 84 2700 
L 84 3500 
L 641 3500 
L 641 4494 
L 1759 4494 
z
" transform="scale(0.015625)"/>
      <path id="DejaVuSans-Bold-61" d="M 2106 1575 
Q 1756 1575 1579 1456 
Q 1403 1338 1403 1106 
Q 1403 894 1545 773 
Q 1688 653 1941 653 
Q 2256 653 2472 879 
Q 2688 1106 2688 1447 
L 2688 1575 
L 2106 1575 
z
M 3816 1997 
L 3816 0 
L 2688 0 
L 2688 519 
Q 2463 200 2181 54 
Q 1900 -91 1497 -91 
Q 953 -91 614 226 
Q 275 544 275 1050 
Q 275 1666 698 1953 
Q 1122 2241 2028 2241 
L 2688 2241 
L 2688 2328 
Q 2688 2594 2478 2717 
Q 2269 2841 1825 2841 
Q 1466 2841 1156 2769 
Q 847 2697 581 2553 
L 581 3406 
Q 941 3494 1303 3539 
Q 1666 3584 2028 3584 
Q 2975 3584 3395 3211 
Q 3816 2838 3816 1997 
z
" transform="scale(0.015625)"/>
      <path id="DejaVuSans-Bold-64" d="M 2919 2988 
L 2919 4863 
L 4044 4863 
L 4044 0 
L 2919 0 
L 2919 506 
Q 2688 197 2409 53 
Q 2131 -91 1766 -91 
Q 1119 -91 703 423 
Q 288 938 288 1747 
Q 288 2556 703 3070 
Q 1119 3584 1766 3584 
Q 2128 3584 2408 3439 
Q 2688 3294 2919 2988 
z
M 2181 722 
Q 2541 722 2730 984 
Q 2919 1247 2919 1747 
Q 2919 2247 2730 2509 
Q 2541 2772 2181 2772 
Q 1825 2772 1636 2509 
Q 1447 2247 1447 1747 
Q 1447 1247 1636 984 
Q 1825 722 2181 722 
z
" transform="scale(0.015625)"/>
      <path id="DejaVuSans-Bold-72" d="M 3138 2547 
Q 2991 2616 2845 2648 
Q 2700 2681 2553 2681 
Q 2122 2681 1889 2404 
Q 1656 2128 1656 1613 
L 1656 0 
L 538 0 
L 538 3500 
L 1656 3500 
L 1656 2925 
Q 1872 3269 2151 3426 
Q 2431 3584 2822 3584 
Q 2878 3584 2943 3579 
Q 3009 3575 3134 3559 
L 3138 2547 
z
" transform="scale(0.015625)"/>
      <path id="DejaVuSans-Bold-28" d="M 2413 -844 
L 1484 -844 
Q 1006 -72 778 623 
Q 550 1319 550 2003 
Q 550 2688 779 3389 
Q 1009 4091 1484 4856 
L 2413 4856 
Q 2013 4116 1813 3408 
Q 1613 2700 1613 2009 
Q 1613 1319 1811 609 
Q 2009 -100 2413 -844 
z
" transform="scale(0.015625)"/>
      <path id="DejaVuSans-Bold-6c" d="M 538 4863 
L 1656 4863 
L 1656 0 
L 538 0 
L 538 4863 
z
" transform="scale(0.015625)"/>
      <path id="DejaVuSans-Bold-6e" d="M 4056 2131 
L 4056 0 
L 2931 0 
L 2931 347 
L 2931 1631 
Q 2931 2084 2911 2256 
Q 2891 2428 2841 2509 
Q 2775 2619 2662 2680 
Q 2550 2741 2406 2741 
Q 2056 2741 1856 2470 
Q 1656 2200 1656 1722 
L 1656 0 
L 538 0 
L 538 3500 
L 1656 3500 
L 1656 2988 
Q 1909 3294 2193 3439 
Q 2478 3584 2822 3584 
Q 3428 3584 3742 3212 
Q 4056 2841 4056 2131 
z
" transform="scale(0.015625)"/>
      <path id="DejaVuSans-Bold-29" d="M 513 -844 
Q 913 -100 1113 609 
Q 1313 1319 1313 2009 
Q 1313 2700 1113 3408 
Q 913 4116 513 4856 
L 1441 4856 
Q 1916 4091 2145 3389 
Q 2375 2688 2375 2003 
Q 2375 1319 2147 623 
Q 1919 -72 1441 -844 
L 513 -844 
z
" transform="scale(0.015625)"/>
     </defs>
     <use xlink:href="#DejaVuSans-Bold-52"/>
     <use xlink:href="#DejaVuSans-Bold-65" transform="translate(77.001953 0)"/>
     <use xlink:href="#DejaVuSans-Bold-70" transform="translate(144.824219 0)"/>
     <use xlink:href="#DejaVuSans-Bold-6f" transform="translate(216.40625 0)"/>
     <use xlink:href="#DejaVuSans-Bold-20" transform="translate(285.107422 0)"/>
     <use xlink:href="#DejaVuSans-Bold-4b" transform="translate(319.921875 0)"/>
     <use xlink:href="#DejaVuSans-Bold-50" transform="translate(397.412109 0)"/>
     <use xlink:href="#DejaVuSans-Bold-49" transform="translate(470.703125 0)"/>
     <use xlink:href="#DejaVuSans-Bold-20" transform="translate(507.910156 0)"/>
     <use xlink:href="#DejaVuSans-Bold-43" transform="translate(542.724609 0)"/>
     <use xlink:href="#DejaVuSans-Bold-6f" transform="translate(616.113281 0)"/>
     <use xlink:href="#DejaVuSans-Bold-6d" transform="translate(684.814453 0)"/>
     <use xlink:href="#DejaVuSans-Bold-70" transform="translate(789.013672 0)"/>
     <use xlink:href="#DejaVuSans-Bold-6f" transform="translate(860.595703 0)"/>
     <use xlink:href="#DejaVuSans-Bold-73" transform="translate(929.296875 0)"/>
     <use xlink:href="#DejaVuSans-Bold-69" transform="translate(988.818359 0)"/>
     <use xlink:href="#DejaVuSans-Bold-74" transform="translate(1023.095703 0)"/>
     <use xlink:href="#DejaVuSans-Bold-65" transform="translate(1070.898438 0)"/>
     <use xlink:href="#DejaVuSans-Bold-20" transform="translate(1138.720703 0)"/>
     <use xlink:href="#DejaVuSans-Bold-52" transform="translate(1173.535156 0)"/>
     <use xlink:href="#DejaVuSans-Bold-61" transform="translate(1250.537109 0)"/>
     <use xlink:href="#DejaVuSans-Bold-64" transform="translate(1318.017578 0)"/>
     <use xlink:href="#DejaVuSans-Bold-61" transform="translate(1389.599609 0)"/>
     <use xlink:href="#DejaVuSans-Bold-72" transform="translate(1457.080078 0)"/>
     <use xlink:href="#DejaVuSans-Bold-20" transform="translate(1506.396484 0)"/>
     <use xlink:href="#DejaVuSans-Bold-28" transform="translate(1541.210938 0)"/>
     <use xlink:href="#DejaVuSans-Bold-52" transform="translate(1586.914062 0)"/>
     <use xlink:href="#DejaVuSans-Bold-65" transform="translate(1663.916016 0)"/>
     <use xlink:href="#DejaVuSans-Bold-6c" transform="translate(1731.738281 0)"/>
     <use xlink:href="#DejaVuSans-Bold-65" transform="translate(1766.015625 0)"/>
     <use xlink:href="#DejaVuSans-Bold-61" transform="translate(1833.837891 0)"/>
     <use xlink:href="#DejaVuSans-Bold-73" transform="translate(1901.318359 0)"/>
     <use xlink:href="#DejaVuSans-Bold-65" transform="translate(1960.839844 0)"/>
     <use xlink:href="#DejaVuSans-Bold-20" transform="translate(2028.662109 0)"/>
     <use xlink:href="#DejaVuSans-Bold-43" transform="translate(2063.476562 0)"/>
     <use xlink:href="#DejaVuSans-Bold-6f" transform="translate(2136.865234 0)"/>
     <use xlink:href="#DejaVuSans-Bold-6d" transform="translate(2205.566406 0)"/>
     <use xlink:href="#DejaVuSans-Bold-70" transform="translate(2309.765625 0)"/>
     <use xlink:href="#DejaVuSans-Bold-61" transform="translate(2381.347656 0)"/>
     <use xlink:href="#DejaVuSans-Bold-72" transform="translate(2448.828125 0)"/>
     <use xlink:href="#DejaVuSans-Bold-69" transform="translate(2498.144531 0)"/>
     <use xlink:href="#DejaVuSans-Bold-73" transform="translate(2532.421875 0)"/>
     <use xlink:href="#DejaVuSans-Bold-6f" transform="translate(2591.943359 0)"/>
     <use xlink:href="#DejaVuSans-Bold-6e" transform="translate(2660.644531 0)"/>
     <use xlink:href="#DejaVuSans-Bold-29" transform="translate(2731.835938 0)"/>
    </g>
   </g>
   <g id="legend_1">
    <g id="line2d_17">
     <path d="M 524.320434 52.057362 
L 532.320434 52.057362 
L 540.320434 52.057362 
" style="fill: none; stroke-dasharray: 6.4,3.2; stroke-dashoffset: 0; stroke: #1f77b4; stroke-opacity: 0.85; stroke-width: 1.6"/>
    </g>
    <g id="text_15">
     <!-- v2.0.4 -->
     <g transform="translate(546.720434 54.857362) scale(0.08 -0.08)">
      <defs>
       <path id="DejaVuSans-76" d="M 191 3500 
L 800 3500 
L 1894 563 
L 2988 3500 
L 3597 3500 
L 2284 0 
L 1503 0 
L 191 3500 
z
" transform="scale(0.015625)"/>
       <path id="DejaVuSans-2e" d="M 684 794 
L 1344 794 
L 1344 0 
L 684 0 
L 684 794 
z
" transform="scale(0.015625)"/>
      </defs>
      <use xlink:href="#DejaVuSans-76"/>
      <use xlink:href="#DejaVuSans-32" transform="translate(59.179688 0)"/>
      <use xlink:href="#DejaVuSans-2e" transform="translate(122.802734 0)"/>
      <use xlink:href="#DejaVuSans-30" transform="translate(154.589844 0)"/>
      <use xlink:href="#DejaVuSans-2e" transform="translate(218.212891 0)"/>
      <use xlink:href="#DejaVuSans-34" transform="translate(250 0)"/>
     </g>
    </g>
    <g id="line2d_18">
     <path d="M 524.320434 63.799862 
L 532.320434 63.799862 
L 540.320434 63.799862 
" style="fill: none; stroke-dasharray: 6.4,3.2; stroke-dashoffset: 0; stroke: #2ca02c; stroke-opacity: 0.85; stroke-width: 1.6"/>
    </g>
    <g id="text_16">
     <!-- v2.0.5 -->
     <g transform="translate(546.720434 66.599862) scale(0.08 -0.08)">
      <defs>
       <path id="DejaVuSans-35" d="M 691 4666 
L 3169 4666 
L 3169 4134 
L 1269 4134 
L 1269 2991 
Q 1406 3038 1543 3061 
Q 1681 3084 1819 3084 
Q 2600 3084 3056 2656 
Q 3513 2228 3513 1497 
Q 3513 744 3044 326 
Q 2575 -91 1722 -91 
Q 1428 -91 1123 -41 
Q 819 9 494 109 
L 494 744 
Q 775 591 1075 516 
Q 1375 441 1709 441 
Q 2250 441 2565 725 
Q 2881 1009 2881 1497 
Q 2881 1984 2565 2268 
Q 2250 2553 1709 2553 
Q 1456 2553 1204 2497 
Q 953 2441 691 2322 
L 691 4666 
z
" transform="scale(0.015625)"/>
      </defs>
      <use xlink:href="#DejaVuSans-76"/>
      <use xlink:href="#DejaVuSans-32" transform="translate(59.179688 0)"/>
      <use xlink:href="#DejaVuSans-2e" transform="translate(122.802734 0)"/>
      <use xlink:href="#DejaVuSans-30" transform="translate(154.589844 0)"/>
      <use xlink:href="#DejaVuSans-2e" transform="translate(218.212891 0)"/>
      <use xlink:href="#DejaVuSans-35" transform="translate(250 0)"/>
     </g>
    </g>
    <g id="line2d_19">
     <path d="M 524.320434 75.542362 
L 532.320434 75.542362 
L 540.320434 75.542362 
" style="fill: none; stroke: #d62728; stroke-width: 2.8; stroke-linecap: square"/>
    </g>
    <g id="text_17">
     <!-- v2.0.6 (latest) -->
     <g transform="translate(546.720434 78.342362) scale(0.08 -0.08)">
      <defs>
       <path id="DejaVuSans-20" transform="scale(0.015625)"/>
       <path id="DejaVuSans-28" d="M 1984 4856 
Q 1566 4138 1362 3434 
Q 1159 2731 1159 2009 
Q 1159 1288 1364 580 
Q 1569 -128 1984 -844 
L 1484 -844 
Q 1016 -109 783 600 
Q 550 1309 550 2009 
Q 550 2706 781 3412 
Q 1013 4119 1484 4856 
L 1984 4856 
z
" transform="scale(0.015625)"/>
       <path id="DejaVuSans-29" d="M 513 4856 
L 1013 4856 
Q 1481 4119 1714 3412 
Q 1947 2706 1947 2009 
Q 1947 1309 1714 600 
Q 1481 -109 1013 -844 
L 513 -844 
Q 928 -128 1133 580 
Q 1338 1288 1338 2009 
Q 1338 2731 1133 3434 
Q 928 4138 513 4856 
z
" transform="scale(0.015625)"/>
      </defs>
      <use xlink:href="#DejaVuSans-76"/>
      <use xlink:href="#DejaVuSans-32" transform="translate(59.179688 0)"/>
      <use xlink:href="#DejaVuSans-2e" transform="translate(122.802734 0)"/>
      <use xlink:href="#DejaVuSans-30" transform="translate(154.589844 0)"/>
      <use xlink:href="#DejaVuSans-2e" transform="translate(218.212891 0)"/>
      <use xlink:href="#DejaVuSans-36" transform="translate(250 0)"/>
      <use xlink:href="#DejaVuSans-20" transform="translate(313.623047 0)"/>
      <use xlink:href="#DejaVuSans-28" transform="translate(345.410156 0)"/>
      <use xlink:href="#DejaVuSans-6c" transform="translate(384.423828 0)"/>
      <use xlink:href="#DejaVuSans-61" transform="translate(412.207031 0)"/>
      <use xlink:href="#DejaVuSans-74" transform="translate(473.486328 0)"/>
      <use xlink:href="#DejaVuSans-65" transform="translate(512.695312 0)"/>
      <use xlink:href="#DejaVuSans-73" transform="translate(574.21875 0)"/>
      <use xlink:href="#DejaVuSans-74" transform="translate(626.318359 0)"/>
      <use xlink:href="#DejaVuSans-29" transform="translate(665.527344 0)"/>
     </g>
    </g>
   </g>
  </g>
  <g id="text_18">
   <!-- Latest release is filled; prior releases are dashed outlines. -->
   <g transform="translate(148.550859 584.401012) scale(0.08 -0.08)">
    <defs>
     <path id="DejaVuSans-4c" d="M 628 4666 
L 1259 4666 
L 1259 531 
L 3531 531 
L 3531 0 
L 628 0 
L 628 4666 
z
" transform="scale(0.015625)"/>
     <path id="DejaVuSans-66" d="M 2375 4863 
L 2375 4384 
L 1825 4384 
Q 1516 4384 1395 4259 
Q 1275 4134 1275 3809 
L 1275 3500 
L 2222 3500 
L 2222 3053 
L 1275 3053 
L 1275 0 
L 697 0 
L 697 3053 
L 147 3053 
L 147 3500 
L 697 3500 
L 697 3744 
Q 697 4328 969 4595 
Q 1241 4863 1831 4863 
L 2375 4863 
z
" transform="scale(0.015625)"/>
     <path id="DejaVuSans-3b" d="M 750 3309 
L 1409 3309 
L 1409 2516 
L 750 2516 
L 750 3309 
z
M 750 794 
L 1409 794 
L 1409 256 
L 897 -744 
L 494 -744 
L 750 256 
L 750 794 
z
" transform="scale(0.015625)"/>
    </defs>
    <use xlink:href="#DejaVuSans-4c"/>
    <use xlink:href="#DejaVuSans-61" transform="translate(55.712891 0)"/>
    <use xlink:href="#DejaVuSans-74" transform="translate(116.992188 0)"/>
    <use xlink:href="#DejaVuSans-65" transform="translate(156.201172 0)"/>
    <use xlink:href="#DejaVuSans-73" transform="translate(217.724609 0)"/>
    <use xlink:href="#DejaVuSans-74" transform="translate(269.824219 0)"/>
    <use xlink:href="#DejaVuSans-20" transform="translate(309.033203 0)"/>
    <use xlink:href="#DejaVuSans-72" transform="translate(340.820312 0)"/>
    <use xlink:href="#DejaVuSans-65" transform="translate(379.683594 0)"/>
    <use xlink:href="#DejaVuSans-6c" transform="translate(441.207031 0)"/>
    <use xlink:href="#DejaVuSans-65" transform="translate(468.990234 0)"/>
    <use xlink:href="#DejaVuSans-61" transform="translate(530.513672 0)"/>
    <use xlink:href="#DejaVuSans-73" transform="translate(591.792969 0)"/>
    <use xlink:href="#DejaVuSans-65" transform="translate(643.892578 0)"/>
    <use xlink:href="#DejaVuSans-20" transform="translate(705.416016 0)"/>
    <use xlink:href="#DejaVuSans-69" transform="translate(737.203125 0)"/>
    <use xlink:href="#DejaVuSans-73" transform="translate(764.986328 0)"/>
    <use xlink:href="#DejaVuSans-20" transform="translate(817.085938 0)"/>
    <use xlink:href="#DejaVuSans-66" transform="translate(848.873047 0)"/>
    <use xlink:href="#DejaVuSans-69" transform="translate(884.078125 0)"/>
    <use xlink:href="#DejaVuSans-6c" transform="translate(911.861328 0)"/>
    <use xlink:href="#DejaVuSans-6c" transform="translate(939.644531 0)"/>
    <use xlink:href="#DejaVuSans-65" transform="translate(967.427734 0)"/>
    <use xlink:href="#DejaVuSans-64" transform="translate(1028.951172 0)"/>
    <use xlink:href="#DejaVuSans-3b" transform="translate(1092.427734 0)"/>
    <use xlink:href="#DejaVuSans-20" transform="translate(1126.119141 0)"/>
    <use xlink:href="#DejaVuSans-70" transform="translate(1157.90625 0)"/>
    <use xlink:href="#DejaVuSans-72" transform="translate(1221.382812 0)"/>
    <use xlink:href="#DejaVuSans-69" transform="translate(1262.496094 0)"/>
    <use xlink:href="#DejaVuSans-6f" transform="translate(1290.279297 0)"/>
    <use xlink:href="#DejaVuSans-72" transform="translate(1351.460938 0)"/>
    <use xlink:href="#DejaVuSans-20" transform="translate(1392.574219 0)"/>
    <use xlink:href="#DejaVuSans-72" transform="translate(1424.361328 0)"/>
    <use xlink:href="#DejaVuSans-65" transform="translate(1463.224609 0)"/>
    <use xlink:href="#DejaVuSans-6c" transform="translate(1524.748047 0)"/>
    <use xlink:href="#DejaVuSans-65" transform="translate(1552.53125 0)"/>
    <use xlink:href="#DejaVuSans-61" transform="translate(1614.054688 0)"/>
    <use xlink:href="#DejaVuSans-73" transform="translate(1675.333984 0)"/>
    <use xlink:href="#DejaVuSans-65" transform="translate(1727.433594 0)"/>
    <use xlink:href="#DejaVuSans-73" transform="translate(1788.957031 0)"/>
    <use xlink:href="#DejaVuSans-20" transform="translate(1841.056641 0)"/>
    <use xlink:href="#DejaVuSans-61" transform="translate(1872.84375 0)"/>
    <use xlink:href="#DejaVuSans-72" transform="translate(1934.123047 0)"/>
    <use xlink:href="#DejaVuSans-65" transform="translate(1972.986328 0)"/>
    <use xlink:href="#DejaVuSans-20" transform="translate(2034.509766 0)"/>
    <use xlink:href="#DejaVuSans-64" transform="translate(2066.296875 0)"/>
    <use xlink:href="#DejaVuSans-61" transform="translate(2129.773438 0)"/>
    <use xlink:href="#DejaVuSans-73" transform="translate(2191.052734 0)"/>
    <use xlink:href="#DejaVuSans-68" transform="translate(2243.152344 0)"/>
    <use xlink:href="#DejaVuSans-65" transform="translate(2306.53125 0)"/>
    <use xlink:href="#DejaVuSans-64" transform="translate(2368.054688 0)"/>
    <use xlink:href="#DejaVuSans-20" transform="translate(2431.53125 0)"/>
    <use xlink:href="#DejaVuSans-6f" transform="translate(2463.318359 0)"/>
    <use xlink:href="#DejaVuSans-75" transform="translate(2524.5 0)"/>
    <use xlink:href="#DejaVuSans-74" transform="translate(2587.878906 0)"/>
    <use xlink:href="#DejaVuSans-6c" transform="translate(2627.087891 0)"/>
    <use xlink:href="#DejaVuSans-69" transform="translate(2654.871094 0)"/>
    <use xlink:href="#DejaVuSans-6e" transform="translate(2682.654297 0)"/>
    <use xlink:href="#DejaVuSans-65" transform="translate(2746.033203 0)"/>
    <use xlink:href="#DejaVuSans-73" transform="translate(2807.556641 0)"/>
    <use xlink:href="#DejaVuSans-2e" transform="translate(2859.65625 0)"/>
   </g>
  </g>
 </g>
 <defs>
  <clipPath id="p7e9ae6f33a">
   <path d="M 494.967734 316.561012 
C 494.967734 287.439756 489.231482 258.601667 478.08726 231.697135 
C 466.943037 204.792602 450.607572 180.344851 430.015734 159.753013 
C 409.423896 139.161175 384.976145 122.82571 358.071612 111.681487 
C 331.16708 100.537265 302.328991 94.801012 273.207734 94.801012 
C 244.086478 94.801012 215.248389 100.537265 188.343856 111.681487 
C 161.439324 122.82571 136.991572 139.161175 116.399735 159.753013 
C 95.807897 180.344851 79.472432 204.792602 68.328209 231.697135 
C 57.183987 258.601667 51.447734 287.439756 51.447734 316.561012 
C 51.447734 345.682269 57.183987 374.520358 68.328209 401.42489 
C 79.472432 428.329423 95.807897 452.777174 116.399735 473.369012 
C 136.991572 493.96085 161.439324 510.296315 188.343856 521.440538 
C 215.248389 532.58476 244.086478 538.321012 273.207734 538.321012 
C 302.328991 538.321012 331.16708 532.58476 358.071612 521.440538 
C 384.976145 510.296315 409.423896 493.96085 430.015734 473.369012 
C 450.607572 452.777174 466.943037 428.329423 478.08726 401.42489 
C 489.231482 374.520358 494.967734 345.682269 494.967734 316.561012 
M 273.207734 316.561012 
C 273.207734 316.561012 273.207734 316.561012 273.207734 316.561012 
C 273.207734 316.561012 273.207734 316.561012 273.207734 316.561012 
C 273.207734 316.561012 273.207734 316.561012 273.207734 316.561012 
C 273.207734 316.561012 273.207734 316.561012 273.207734 316.561012 
C 273.207734 316.561012 273.207734 316.561012 273.207734 316.561012 
C 273.207734 316.561012 273.207734 316.561012 273.207734 316.561012 
C 273.207734 316.561012 273.207734 316.561012 273.207734 316.561012 
C 273.207734 316.561012 273.207734 316.561012 273.207734 316.561012 
C 273.207734 316.561012 273.207734 316.561012 273.207734 316.561012 
C 273.207734 316.561012 273.207734 316.561012 273.207734 316.561012 
C 273.207734 316.561012 273.207734 316.561012 273.207734 316.561012 
C 273.207734 316.561012 273.207734 316.561012 273.207734 316.561012 
C 273.207734 316.561012 273.207734 316.561012 273.207734 316.561012 
C 273.207734 316.561012 273.207734 316.561012 273.207734 316.561012 
C 273.207734 316.561012 273.207734 316.561012 273.207734 316.561012 
C 273.207734 316.561012 273.207734 316.561012 273.207734 316.561012 
z
"/>
  </clipPath>
 </defs>
</svg>
